<mxfile host="Electron" modified="2023-12-03T12:52:30.874Z" agent="Mozilla/5.0 (Windows NT 10.0; Win64; x64) AppleWebKit/537.36 (KHTML, like Gecko) draw.io/22.0.3 Chrome/114.0.5735.289 Electron/25.8.4 Safari/537.36" etag="ubOXluX13Pz9FOX3QDdI" version="22.0.3" type="device">
  <diagram name="Page-1" id="L7VYTvUnGrwDUEZnL2d_">
    <mxGraphModel dx="3802" dy="-604" grid="1" gridSize="10" guides="1" tooltips="1" connect="1" arrows="1" fold="1" page="1" pageScale="1" pageWidth="850" pageHeight="1100" math="0" shadow="0">
      <root>
        <mxCell id="0" />
        <mxCell id="1" parent="0" />
        <mxCell id="7crgOBvIinUt4j5GadzT-183" value="&lt;div style=&quot;box-sizing: border-box; width: 100%; background: rgb(228, 228, 228); padding: 2px; font-size: 12px;&quot;&gt;api_keys&lt;/div&gt;&lt;table style=&quot;width: 100%; font-size: 12px;&quot; cellpadding=&quot;2&quot; cellspacing=&quot;0&quot;&gt;&lt;tbody style=&quot;font-size: 12px;&quot;&gt;&lt;tr style=&quot;font-size: 12px;&quot;&gt;&lt;td style=&quot;font-size: 12px;&quot;&gt;FK, PK&lt;/td&gt;&lt;td style=&quot;font-size: 12px;&quot;&gt;user_id INT&lt;/td&gt;&lt;/tr&gt;&lt;tr style=&quot;font-size: 12px;&quot;&gt;&lt;td style=&quot;font-size: 12px;&quot;&gt;&lt;br style=&quot;font-size: 12px;&quot;&gt;&lt;/td&gt;&lt;td style=&quot;font-size: 12px;&quot;&gt;key VARCHAR(255)&lt;/td&gt;&lt;/tr&gt;&lt;tr style=&quot;font-size: 12px;&quot;&gt;&lt;td style=&quot;font-size: 12px;&quot;&gt;&lt;/td&gt;&lt;td style=&quot;font-size: 12px;&quot;&gt;status BOOLEAN&lt;/td&gt;&lt;/tr&gt;&lt;/tbody&gt;&lt;/table&gt;" style="verticalAlign=top;align=left;overflow=fill;html=1;rounded=0;shadow=0;comic=0;labelBackgroundColor=none;strokeWidth=1;fontFamily=Verdana;fontSize=12;" parent="1" vertex="1">
          <mxGeometry x="-2460" y="2210" width="180" height="80" as="geometry" />
        </mxCell>
        <mxCell id="7crgOBvIinUt4j5GadzT-184" style="edgeStyle=orthogonalEdgeStyle;rounded=0;orthogonalLoop=1;jettySize=auto;html=1;exitX=0.5;exitY=0;exitDx=0;exitDy=0;entryX=0.5;entryY=1;entryDx=0;entryDy=0;fontColor=#000000;" parent="1" source="7crgOBvIinUt4j5GadzT-185" target="7crgOBvIinUt4j5GadzT-186" edge="1">
          <mxGeometry relative="1" as="geometry" />
        </mxCell>
        <mxCell id="7crgOBvIinUt4j5GadzT-185" value="&lt;div style=&quot;box-sizing: border-box; width: 100%; background: rgb(228, 228, 228); padding: 2px; font-size: 12px;&quot;&gt;carts&lt;/div&gt;&lt;table style=&quot;width: 100%; font-size: 12px;&quot; cellpadding=&quot;2&quot; cellspacing=&quot;0&quot;&gt;&lt;tbody style=&quot;font-size: 12px;&quot;&gt;&lt;tr style=&quot;font-size: 12px;&quot;&gt;&lt;td style=&quot;font-size: 12px;&quot;&gt;PK&lt;/td&gt;&lt;td style=&quot;font-size: 12px;&quot;&gt;id INT&lt;/td&gt;&lt;/tr&gt;&lt;tr style=&quot;font-size: 12px;&quot;&gt;&lt;td style=&quot;font-size: 12px;&quot;&gt;&lt;br style=&quot;font-size: 12px;&quot;&gt;&lt;/td&gt;&lt;td style=&quot;font-size: 12px;&quot;&gt;state ENUM&lt;/td&gt;&lt;/tr&gt;&lt;tr style=&quot;font-size: 12px;&quot;&gt;&lt;td style=&quot;font-size: 12px;&quot;&gt;FK&lt;/td&gt;&lt;td style=&quot;font-size: 12px;&quot;&gt;user_id&lt;/td&gt;&lt;/tr&gt;&lt;tr style=&quot;font-size: 12px;&quot;&gt;&lt;td style=&quot;font-size: 12px;&quot;&gt;&lt;br style=&quot;font-size: 12px;&quot;&gt;&lt;/td&gt;&lt;td style=&quot;font-size: 12px;&quot;&gt;&lt;br style=&quot;font-size: 12px;&quot;&gt;&lt;/td&gt;&lt;/tr&gt;&lt;/tbody&gt;&lt;/table&gt;" style="verticalAlign=top;align=left;overflow=fill;html=1;rounded=0;shadow=0;comic=0;labelBackgroundColor=none;strokeWidth=1;fontFamily=Verdana;fontSize=12;fillColor=#eeeeee;strokeColor=#36393d;" parent="1" vertex="1">
          <mxGeometry x="-2025" y="1760" width="180" height="80" as="geometry" />
        </mxCell>
        <mxCell id="7crgOBvIinUt4j5GadzT-186" value="&lt;div style=&quot;box-sizing: border-box; width: 100%; background: rgb(228, 228, 228); padding: 2px; font-size: 12px;&quot;&gt;cart_items&lt;/div&gt;&lt;table style=&quot;width: 100%; font-size: 12px;&quot; cellpadding=&quot;2&quot; cellspacing=&quot;0&quot;&gt;&lt;tbody style=&quot;font-size: 12px;&quot;&gt;&lt;tr style=&quot;font-size: 12px;&quot;&gt;&lt;td style=&quot;font-size: 12px;&quot;&gt;PK&lt;/td&gt;&lt;td style=&quot;font-size: 12px;&quot;&gt;id INT&lt;/td&gt;&lt;/tr&gt;&lt;tr style=&quot;font-size: 12px;&quot;&gt;&lt;td style=&quot;font-size: 12px;&quot;&gt;FK&lt;/td&gt;&lt;td style=&quot;font-size: 12px;&quot;&gt;product_id INT&lt;/td&gt;&lt;/tr&gt;&lt;tr style=&quot;font-size: 12px;&quot;&gt;&lt;td style=&quot;font-size: 12px;&quot;&gt;FK&lt;/td&gt;&lt;td style=&quot;font-size: 12px;&quot;&gt;cart_id INT&lt;/td&gt;&lt;/tr&gt;&lt;tr style=&quot;font-size: 12px;&quot;&gt;&lt;td style=&quot;font-size: 12px;&quot;&gt;&lt;br style=&quot;font-size: 12px;&quot;&gt;&lt;/td&gt;&lt;td style=&quot;font-size: 12px;&quot;&gt;quantity INT&lt;/td&gt;&lt;/tr&gt;&lt;/tbody&gt;&lt;/table&gt;" style="verticalAlign=top;align=left;overflow=fill;html=1;rounded=0;shadow=0;comic=0;labelBackgroundColor=none;strokeWidth=1;fontFamily=Verdana;fontSize=12;" parent="1" vertex="1">
          <mxGeometry x="-2025" y="1620" width="180" height="100" as="geometry" />
        </mxCell>
        <mxCell id="7crgOBvIinUt4j5GadzT-187" value="&lt;div style=&quot;box-sizing: border-box; width: 100%; background: rgb(228, 228, 228); padding: 2px; font-size: 12px;&quot;&gt;comments&lt;/div&gt;&lt;table style=&quot;width: 100%; font-size: 12px;&quot; cellpadding=&quot;2&quot; cellspacing=&quot;0&quot;&gt;&lt;tbody style=&quot;font-size: 12px;&quot;&gt;&lt;tr style=&quot;font-size: 12px;&quot;&gt;&lt;td style=&quot;font-size: 12px;&quot;&gt;PK&lt;/td&gt;&lt;td style=&quot;font-size: 12px;&quot;&gt;id INT&lt;/td&gt;&lt;/tr&gt;&lt;tr style=&quot;font-size: 12px;&quot;&gt;&lt;td style=&quot;font-size: 12px;&quot;&gt;FK&lt;/td&gt;&lt;td style=&quot;font-size: 12px;&quot;&gt;product_id_INT&lt;/td&gt;&lt;/tr&gt;&lt;tr style=&quot;font-size: 12px;&quot;&gt;&lt;td style=&quot;font-size: 12px;&quot;&gt;FK&amp;nbsp;&lt;/td&gt;&lt;td style=&quot;font-size: 12px;&quot;&gt;user_id INT&lt;/td&gt;&lt;/tr&gt;&lt;tr style=&quot;font-size: 12px;&quot;&gt;&lt;td style=&quot;font-size: 12px;&quot;&gt;&lt;br style=&quot;font-size: 12px;&quot;&gt;&lt;/td&gt;&lt;td style=&quot;font-size: 12px;&quot;&gt;content VARCHAR(255)&lt;/td&gt;&lt;/tr&gt;&lt;tr style=&quot;font-size: 12px;&quot;&gt;&lt;td style=&quot;font-size: 12px;&quot;&gt;&lt;br style=&quot;font-size: 12px;&quot;&gt;&lt;/td&gt;&lt;td style=&quot;font-size: 12px;&quot;&gt;left INT&lt;/td&gt;&lt;/tr&gt;&lt;tr style=&quot;font-size: 12px;&quot;&gt;&lt;td style=&quot;font-size: 12px;&quot;&gt;&lt;br style=&quot;font-size: 12px;&quot;&gt;&lt;/td&gt;&lt;td style=&quot;font-size: 12px;&quot;&gt;right INT&lt;/td&gt;&lt;/tr&gt;&lt;tr style=&quot;font-size: 12px;&quot;&gt;&lt;td style=&quot;font-size: 12px;&quot;&gt;FK&lt;br style=&quot;font-size: 12px;&quot;&gt;&lt;/td&gt;&lt;td style=&quot;font-size: 12px;&quot;&gt;parent_id&lt;/td&gt;&lt;/tr&gt;&lt;tr style=&quot;font-size: 12px;&quot;&gt;&lt;td style=&quot;font-size: 12px;&quot;&gt;&lt;br style=&quot;font-size: 12px;&quot;&gt;&lt;/td&gt;&lt;td style=&quot;font-size: 12px;&quot;&gt;&lt;br style=&quot;font-size: 12px;&quot;&gt;&lt;/td&gt;&lt;/tr&gt;&lt;tr style=&quot;font-size: 12px;&quot;&gt;&lt;td style=&quot;font-size: 12px;&quot;&gt;&lt;br style=&quot;font-size: 12px;&quot;&gt;&lt;/td&gt;&lt;td style=&quot;font-size: 12px;&quot;&gt;&lt;br style=&quot;font-size: 12px;&quot;&gt;&lt;/td&gt;&lt;/tr&gt;&lt;tr style=&quot;font-size: 12px;&quot;&gt;&lt;td style=&quot;font-size: 12px;&quot;&gt;&lt;br style=&quot;font-size: 12px;&quot;&gt;&lt;/td&gt;&lt;td style=&quot;font-size: 12px;&quot;&gt;&lt;br style=&quot;font-size: 12px;&quot;&gt;&lt;/td&gt;&lt;/tr&gt;&lt;tr style=&quot;font-size: 12px;&quot;&gt;&lt;td style=&quot;font-size: 12px;&quot;&gt;&lt;br style=&quot;font-size: 12px;&quot;&gt;&lt;/td&gt;&lt;td style=&quot;font-size: 12px;&quot;&gt;&lt;br style=&quot;font-size: 12px;&quot;&gt;&lt;/td&gt;&lt;/tr&gt;&lt;tr style=&quot;font-size: 12px;&quot;&gt;&lt;td style=&quot;font-size: 12px;&quot;&gt;&lt;br style=&quot;font-size: 12px;&quot;&gt;&lt;/td&gt;&lt;td style=&quot;font-size: 12px;&quot;&gt;&lt;br style=&quot;font-size: 12px;&quot;&gt;&lt;/td&gt;&lt;/tr&gt;&lt;tr style=&quot;font-size: 12px;&quot;&gt;&lt;td style=&quot;font-size: 12px;&quot;&gt;&lt;br style=&quot;font-size: 12px;&quot;&gt;&lt;/td&gt;&lt;td style=&quot;font-size: 12px;&quot;&gt;&lt;br style=&quot;font-size: 12px;&quot;&gt;&lt;/td&gt;&lt;/tr&gt;&lt;tr style=&quot;font-size: 12px;&quot;&gt;&lt;td style=&quot;font-size: 12px;&quot;&gt;&lt;br style=&quot;font-size: 12px;&quot;&gt;&lt;/td&gt;&lt;td style=&quot;font-size: 12px;&quot;&gt;&lt;br style=&quot;font-size: 12px;&quot;&gt;&lt;/td&gt;&lt;/tr&gt;&lt;tr style=&quot;font-size: 12px;&quot;&gt;&lt;td style=&quot;font-size: 12px;&quot;&gt;&lt;br style=&quot;font-size: 12px;&quot;&gt;&lt;/td&gt;&lt;td style=&quot;font-size: 12px;&quot;&gt;&lt;br style=&quot;font-size: 12px;&quot;&gt;&lt;/td&gt;&lt;/tr&gt;&lt;tr style=&quot;font-size: 12px;&quot;&gt;&lt;td style=&quot;font-size: 12px;&quot;&gt;&lt;br style=&quot;font-size: 12px;&quot;&gt;&lt;/td&gt;&lt;td style=&quot;font-size: 12px;&quot;&gt;&lt;br style=&quot;font-size: 12px;&quot;&gt;&lt;/td&gt;&lt;/tr&gt;&lt;tr style=&quot;font-size: 12px;&quot;&gt;&lt;td style=&quot;font-size: 12px;&quot;&gt;&lt;br style=&quot;font-size: 12px;&quot;&gt;&lt;/td&gt;&lt;td style=&quot;font-size: 12px;&quot;&gt;&lt;br style=&quot;font-size: 12px;&quot;&gt;&lt;/td&gt;&lt;/tr&gt;&lt;/tbody&gt;&lt;/table&gt;" style="verticalAlign=top;align=left;overflow=fill;html=1;rounded=0;shadow=0;comic=0;labelBackgroundColor=none;strokeWidth=1;fontFamily=Verdana;fontSize=12;fillColor=#ffcc99;strokeColor=#36393d;" parent="1" vertex="1">
          <mxGeometry x="-1950" y="2260" width="180" height="150" as="geometry" />
        </mxCell>
        <mxCell id="7crgOBvIinUt4j5GadzT-188" value="&lt;div style=&quot;box-sizing: border-box; width: 100%; background: rgb(228, 228, 228); padding: 2px; font-size: 12px;&quot;&gt;discounts_products&lt;/div&gt;&lt;table style=&quot;width: 100%; font-size: 12px;&quot; cellpadding=&quot;2&quot; cellspacing=&quot;0&quot;&gt;&lt;tbody style=&quot;font-size: 12px;&quot;&gt;&lt;tr style=&quot;font-size: 12px;&quot;&gt;&lt;td style=&quot;font-size: 12px;&quot;&gt;PK&lt;/td&gt;&lt;td style=&quot;font-size: 12px;&quot;&gt;id INT&lt;/td&gt;&lt;/tr&gt;&lt;tr style=&quot;font-size: 12px;&quot;&gt;&lt;td style=&quot;font-size: 12px;&quot;&gt;FK&lt;/td&gt;&lt;td style=&quot;font-size: 12px;&quot;&gt;discount_id INT&lt;/td&gt;&lt;/tr&gt;&lt;tr style=&quot;font-size: 12px;&quot;&gt;&lt;td style=&quot;font-size: 12px;&quot;&gt;FK&lt;/td&gt;&lt;td style=&quot;font-size: 12px;&quot;&gt;product_id INT&lt;/td&gt;&lt;/tr&gt;&lt;tr style=&quot;font-size: 12px;&quot;&gt;&lt;td style=&quot;font-size: 12px;&quot;&gt;&lt;br style=&quot;font-size: 12px;&quot;&gt;&lt;/td&gt;&lt;td style=&quot;font-size: 12px;&quot;&gt;&lt;br style=&quot;font-size: 12px;&quot;&gt;&lt;/td&gt;&lt;/tr&gt;&lt;tr style=&quot;font-size: 12px;&quot;&gt;&lt;td style=&quot;font-size: 12px;&quot;&gt;&lt;br style=&quot;font-size: 12px;&quot;&gt;&lt;/td&gt;&lt;td style=&quot;font-size: 12px;&quot;&gt;&lt;br style=&quot;font-size: 12px;&quot;&gt;&lt;/td&gt;&lt;/tr&gt;&lt;tr style=&quot;font-size: 12px;&quot;&gt;&lt;td style=&quot;font-size: 12px;&quot;&gt;&lt;br style=&quot;font-size: 12px;&quot;&gt;&lt;/td&gt;&lt;td style=&quot;font-size: 12px;&quot;&gt;&lt;br style=&quot;font-size: 12px;&quot;&gt;&lt;/td&gt;&lt;/tr&gt;&lt;tr style=&quot;font-size: 12px;&quot;&gt;&lt;td style=&quot;font-size: 12px;&quot;&gt;&lt;br style=&quot;font-size: 12px;&quot;&gt;&lt;/td&gt;&lt;td style=&quot;font-size: 12px;&quot;&gt;&lt;br style=&quot;font-size: 12px;&quot;&gt;&lt;/td&gt;&lt;/tr&gt;&lt;tr style=&quot;font-size: 12px;&quot;&gt;&lt;td style=&quot;font-size: 12px;&quot;&gt;&lt;br style=&quot;font-size: 12px;&quot;&gt;&lt;/td&gt;&lt;td style=&quot;font-size: 12px;&quot;&gt;&lt;br style=&quot;font-size: 12px;&quot;&gt;&lt;/td&gt;&lt;/tr&gt;&lt;tr style=&quot;font-size: 12px;&quot;&gt;&lt;td style=&quot;font-size: 12px;&quot;&gt;&lt;br style=&quot;font-size: 12px;&quot;&gt;&lt;/td&gt;&lt;td style=&quot;font-size: 12px;&quot;&gt;&lt;br style=&quot;font-size: 12px;&quot;&gt;&lt;/td&gt;&lt;/tr&gt;&lt;tr style=&quot;font-size: 12px;&quot;&gt;&lt;td style=&quot;font-size: 12px;&quot;&gt;&lt;br style=&quot;font-size: 12px;&quot;&gt;&lt;/td&gt;&lt;td style=&quot;font-size: 12px;&quot;&gt;&lt;br style=&quot;font-size: 12px;&quot;&gt;&lt;/td&gt;&lt;/tr&gt;&lt;tr style=&quot;font-size: 12px;&quot;&gt;&lt;td style=&quot;font-size: 12px;&quot;&gt;&lt;br style=&quot;font-size: 12px;&quot;&gt;&lt;/td&gt;&lt;td style=&quot;font-size: 12px;&quot;&gt;&lt;br style=&quot;font-size: 12px;&quot;&gt;&lt;/td&gt;&lt;/tr&gt;&lt;tr style=&quot;font-size: 12px;&quot;&gt;&lt;td style=&quot;font-size: 12px;&quot;&gt;&lt;br style=&quot;font-size: 12px;&quot;&gt;&lt;/td&gt;&lt;td style=&quot;font-size: 12px;&quot;&gt;&lt;br style=&quot;font-size: 12px;&quot;&gt;&lt;/td&gt;&lt;/tr&gt;&lt;tr style=&quot;font-size: 12px;&quot;&gt;&lt;td style=&quot;font-size: 12px;&quot;&gt;&lt;br style=&quot;font-size: 12px;&quot;&gt;&lt;/td&gt;&lt;td style=&quot;font-size: 12px;&quot;&gt;&lt;br style=&quot;font-size: 12px;&quot;&gt;&lt;/td&gt;&lt;/tr&gt;&lt;tr style=&quot;font-size: 12px;&quot;&gt;&lt;td style=&quot;font-size: 12px;&quot;&gt;&lt;br style=&quot;font-size: 12px;&quot;&gt;&lt;/td&gt;&lt;td style=&quot;font-size: 12px;&quot;&gt;&lt;br style=&quot;font-size: 12px;&quot;&gt;&lt;/td&gt;&lt;/tr&gt;&lt;tr style=&quot;font-size: 12px;&quot;&gt;&lt;td style=&quot;font-size: 12px;&quot;&gt;&lt;br style=&quot;font-size: 12px;&quot;&gt;&lt;/td&gt;&lt;td style=&quot;font-size: 12px;&quot;&gt;&lt;br style=&quot;font-size: 12px;&quot;&gt;&lt;/td&gt;&lt;/tr&gt;&lt;tr style=&quot;font-size: 12px;&quot;&gt;&lt;td style=&quot;font-size: 12px;&quot;&gt;&lt;br style=&quot;font-size: 12px;&quot;&gt;&lt;/td&gt;&lt;td style=&quot;font-size: 12px;&quot;&gt;&lt;br style=&quot;font-size: 12px;&quot;&gt;&lt;/td&gt;&lt;/tr&gt;&lt;tr style=&quot;font-size: 12px;&quot;&gt;&lt;td style=&quot;font-size: 12px;&quot;&gt;&lt;br style=&quot;font-size: 12px;&quot;&gt;&lt;/td&gt;&lt;td style=&quot;font-size: 12px;&quot;&gt;&lt;br style=&quot;font-size: 12px;&quot;&gt;&lt;/td&gt;&lt;/tr&gt;&lt;/tbody&gt;&lt;/table&gt;" style="verticalAlign=top;align=left;overflow=fill;html=1;rounded=0;shadow=0;comic=0;labelBackgroundColor=none;strokeWidth=1;fontFamily=Verdana;fontSize=12;fillColor=#ffff88;strokeColor=#36393d;" parent="1" vertex="1">
          <mxGeometry x="-1780" y="1600" width="210" height="80" as="geometry" />
        </mxCell>
        <mxCell id="7crgOBvIinUt4j5GadzT-189" value="&lt;div style=&quot;box-sizing: border-box; width: 100%; background: rgb(228, 228, 228); padding: 2px; font-size: 12px;&quot;&gt;inventories&lt;/div&gt;&lt;table style=&quot;width: 100%; font-size: 12px;&quot; cellpadding=&quot;2&quot; cellspacing=&quot;0&quot;&gt;&lt;tbody style=&quot;font-size: 12px;&quot;&gt;&lt;tr style=&quot;font-size: 12px;&quot;&gt;&lt;td style=&quot;font-size: 12px;&quot;&gt;PK&lt;/td&gt;&lt;td style=&quot;font-size: 12px;&quot;&gt;id&lt;/td&gt;&lt;/tr&gt;&lt;tr style=&quot;font-size: 12px;&quot;&gt;&lt;td style=&quot;font-size: 12px;&quot;&gt;FK&lt;/td&gt;&lt;td style=&quot;font-size: 12px;&quot;&gt;product_id VARCHAR(255)&lt;/td&gt;&lt;/tr&gt;&lt;tr style=&quot;font-size: 12px;&quot;&gt;&lt;td style=&quot;font-size: 12px;&quot;&gt;&lt;/td&gt;&lt;td style=&quot;font-size: 12px;&quot;&gt;location VARCHAR(255)&lt;/td&gt;&lt;/tr&gt;&lt;tr style=&quot;font-size: 12px;&quot;&gt;&lt;td style=&quot;font-size: 12px;&quot;&gt;&lt;br style=&quot;font-size: 12px;&quot;&gt;&lt;/td&gt;&lt;td style=&quot;font-size: 12px;&quot;&gt;stock INT&lt;/td&gt;&lt;/tr&gt;&lt;tr style=&quot;font-size: 12px;&quot;&gt;&lt;td style=&quot;font-size: 12px;&quot;&gt;FK&lt;/td&gt;&lt;td style=&quot;font-size: 12px;&quot;&gt;shop_id INT&lt;/td&gt;&lt;/tr&gt;&lt;tr style=&quot;font-size: 12px;&quot;&gt;&lt;td style=&quot;font-size: 12px;&quot;&gt;&lt;br style=&quot;font-size: 12px;&quot;&gt;&lt;/td&gt;&lt;td style=&quot;font-size: 12px;&quot;&gt;&lt;br style=&quot;font-size: 12px;&quot;&gt;&lt;/td&gt;&lt;/tr&gt;&lt;tr style=&quot;font-size: 12px;&quot;&gt;&lt;td style=&quot;font-size: 12px;&quot;&gt;&lt;br style=&quot;font-size: 12px;&quot;&gt;&lt;/td&gt;&lt;td style=&quot;font-size: 12px;&quot;&gt;&lt;br style=&quot;font-size: 12px;&quot;&gt;&lt;/td&gt;&lt;/tr&gt;&lt;tr style=&quot;font-size: 12px;&quot;&gt;&lt;td style=&quot;font-size: 12px;&quot;&gt;&lt;br style=&quot;font-size: 12px;&quot;&gt;&lt;/td&gt;&lt;td style=&quot;font-size: 12px;&quot;&gt;&lt;br style=&quot;font-size: 12px;&quot;&gt;&lt;/td&gt;&lt;/tr&gt;&lt;tr style=&quot;font-size: 12px;&quot;&gt;&lt;td style=&quot;font-size: 12px;&quot;&gt;&lt;br style=&quot;font-size: 12px;&quot;&gt;&lt;/td&gt;&lt;td style=&quot;font-size: 12px;&quot;&gt;&lt;br style=&quot;font-size: 12px;&quot;&gt;&lt;/td&gt;&lt;/tr&gt;&lt;tr style=&quot;font-size: 12px;&quot;&gt;&lt;td style=&quot;font-size: 12px;&quot;&gt;&lt;br style=&quot;font-size: 12px;&quot;&gt;&lt;/td&gt;&lt;td style=&quot;font-size: 12px;&quot;&gt;&lt;br style=&quot;font-size: 12px;&quot;&gt;&lt;/td&gt;&lt;/tr&gt;&lt;tr style=&quot;font-size: 12px;&quot;&gt;&lt;td style=&quot;font-size: 12px;&quot;&gt;&lt;br style=&quot;font-size: 12px;&quot;&gt;&lt;/td&gt;&lt;td style=&quot;font-size: 12px;&quot;&gt;&lt;br style=&quot;font-size: 12px;&quot;&gt;&lt;/td&gt;&lt;/tr&gt;&lt;tr style=&quot;font-size: 12px;&quot;&gt;&lt;td style=&quot;font-size: 12px;&quot;&gt;&lt;br style=&quot;font-size: 12px;&quot;&gt;&lt;/td&gt;&lt;td style=&quot;font-size: 12px;&quot;&gt;&lt;br style=&quot;font-size: 12px;&quot;&gt;&lt;/td&gt;&lt;/tr&gt;&lt;tr style=&quot;font-size: 12px;&quot;&gt;&lt;td style=&quot;font-size: 12px;&quot;&gt;&lt;br style=&quot;font-size: 12px;&quot;&gt;&lt;/td&gt;&lt;td style=&quot;font-size: 12px;&quot;&gt;&lt;br style=&quot;font-size: 12px;&quot;&gt;&lt;/td&gt;&lt;/tr&gt;&lt;tr style=&quot;font-size: 12px;&quot;&gt;&lt;td style=&quot;font-size: 12px;&quot;&gt;&lt;br style=&quot;font-size: 12px;&quot;&gt;&lt;/td&gt;&lt;td style=&quot;font-size: 12px;&quot;&gt;&lt;br style=&quot;font-size: 12px;&quot;&gt;&lt;/td&gt;&lt;/tr&gt;&lt;tr style=&quot;font-size: 12px;&quot;&gt;&lt;td style=&quot;font-size: 12px;&quot;&gt;&lt;br style=&quot;font-size: 12px;&quot;&gt;&lt;/td&gt;&lt;td style=&quot;font-size: 12px;&quot;&gt;&lt;br style=&quot;font-size: 12px;&quot;&gt;&lt;/td&gt;&lt;/tr&gt;&lt;tr style=&quot;font-size: 12px;&quot;&gt;&lt;td style=&quot;font-size: 12px;&quot;&gt;&lt;br style=&quot;font-size: 12px;&quot;&gt;&lt;/td&gt;&lt;td style=&quot;font-size: 12px;&quot;&gt;&lt;br style=&quot;font-size: 12px;&quot;&gt;&lt;/td&gt;&lt;/tr&gt;&lt;tr style=&quot;font-size: 12px;&quot;&gt;&lt;td style=&quot;font-size: 12px;&quot;&gt;&lt;br style=&quot;font-size: 12px;&quot;&gt;&lt;/td&gt;&lt;td style=&quot;font-size: 12px;&quot;&gt;&lt;br style=&quot;font-size: 12px;&quot;&gt;&lt;/td&gt;&lt;/tr&gt;&lt;/tbody&gt;&lt;/table&gt;" style="verticalAlign=top;align=left;overflow=fill;html=1;rounded=0;shadow=0;comic=0;labelBackgroundColor=none;strokeWidth=1;fontFamily=Verdana;fontSize=12;fillColor=#ffcccc;strokeColor=#36393d;" parent="1" vertex="1">
          <mxGeometry x="-1735" y="2130" width="210" height="125" as="geometry" />
        </mxCell>
        <mxCell id="7crgOBvIinUt4j5GadzT-190" style="edgeStyle=orthogonalEdgeStyle;rounded=0;orthogonalLoop=1;jettySize=auto;html=1;exitX=1;exitY=0.5;exitDx=0;exitDy=0;entryX=1;entryY=0;entryDx=0;entryDy=0;fontColor=#000000;" parent="1" source="7crgOBvIinUt4j5GadzT-192" edge="1">
          <mxGeometry relative="1" as="geometry">
            <Array as="points">
              <mxPoint x="-2130" y="1703" />
              <mxPoint x="-2130" y="1920" />
            </Array>
            <mxPoint x="-2080" y="1920" as="targetPoint" />
          </mxGeometry>
        </mxCell>
        <mxCell id="7crgOBvIinUt4j5GadzT-191" value="" style="edgeStyle=orthogonalEdgeStyle;rounded=0;orthogonalLoop=1;jettySize=auto;html=1;fontColor=#000000;" parent="1" source="7crgOBvIinUt4j5GadzT-192" target="7crgOBvIinUt4j5GadzT-258" edge="1">
          <mxGeometry relative="1" as="geometry" />
        </mxCell>
        <mxCell id="7crgOBvIinUt4j5GadzT-192" value="&lt;div style=&quot;box-sizing: border-box; width: 100%; background: rgb(228, 228, 228); padding: 2px; font-size: 12px;&quot;&gt;noficications&lt;/div&gt;&lt;table style=&quot;width: 100%; font-size: 12px;&quot; cellpadding=&quot;2&quot; cellspacing=&quot;0&quot;&gt;&lt;tbody style=&quot;font-size: 12px;&quot;&gt;&lt;tr style=&quot;font-size: 12px;&quot;&gt;&lt;td style=&quot;font-size: 12px;&quot;&gt;PK&lt;/td&gt;&lt;td style=&quot;font-size: 12px;&quot;&gt;id INT&lt;/td&gt;&lt;/tr&gt;&lt;tr style=&quot;font-size: 12px;&quot;&gt;&lt;td style=&quot;font-size: 12px;&quot;&gt;&lt;br style=&quot;font-size: 12px;&quot;&gt;&lt;/td&gt;&lt;td style=&quot;font-size: 12px;&quot;&gt;type VARCHAR(255)&lt;/td&gt;&lt;/tr&gt;&lt;tr style=&quot;font-size: 12px;&quot;&gt;&lt;td style=&quot;font-size: 12px;&quot;&gt;FK&lt;/td&gt;&lt;td style=&quot;font-size: 12px;&quot;&gt;sender_id INT&lt;/td&gt;&lt;/tr&gt;&lt;tr style=&quot;font-size: 12px;&quot;&gt;&lt;td style=&quot;font-size: 12px;&quot;&gt;FK&lt;/td&gt;&lt;td style=&quot;font-size: 12px;&quot;&gt;received_id INT&lt;/td&gt;&lt;/tr&gt;&lt;tr style=&quot;font-size: 12px;&quot;&gt;&lt;td style=&quot;font-size: 12px;&quot;&gt;&lt;br style=&quot;font-size: 12px;&quot;&gt;&lt;/td&gt;&lt;td style=&quot;font-size: 12px;&quot;&gt;content VARCHAR(255)&lt;/td&gt;&lt;/tr&gt;&lt;tr style=&quot;font-size: 12px;&quot;&gt;&lt;td style=&quot;font-size: 12px;&quot;&gt;&lt;br style=&quot;font-size: 12px;&quot;&gt;&lt;/td&gt;&lt;td style=&quot;font-size: 12px;&quot;&gt;&lt;br style=&quot;font-size: 12px;&quot;&gt;&lt;/td&gt;&lt;/tr&gt;&lt;tr style=&quot;font-size: 12px;&quot;&gt;&lt;td style=&quot;font-size: 12px;&quot;&gt;&lt;br style=&quot;font-size: 12px;&quot;&gt;&lt;/td&gt;&lt;td style=&quot;font-size: 12px;&quot;&gt;&lt;br style=&quot;font-size: 12px;&quot;&gt;&lt;/td&gt;&lt;/tr&gt;&lt;tr style=&quot;font-size: 12px;&quot;&gt;&lt;td style=&quot;font-size: 12px;&quot;&gt;&lt;br style=&quot;font-size: 12px;&quot;&gt;&lt;/td&gt;&lt;td style=&quot;font-size: 12px;&quot;&gt;&lt;br style=&quot;font-size: 12px;&quot;&gt;&lt;/td&gt;&lt;/tr&gt;&lt;tr style=&quot;font-size: 12px;&quot;&gt;&lt;td style=&quot;font-size: 12px;&quot;&gt;&lt;br style=&quot;font-size: 12px;&quot;&gt;&lt;/td&gt;&lt;td style=&quot;font-size: 12px;&quot;&gt;&lt;br style=&quot;font-size: 12px;&quot;&gt;&lt;/td&gt;&lt;/tr&gt;&lt;tr style=&quot;font-size: 12px;&quot;&gt;&lt;td style=&quot;font-size: 12px;&quot;&gt;&lt;br style=&quot;font-size: 12px;&quot;&gt;&lt;/td&gt;&lt;td style=&quot;font-size: 12px;&quot;&gt;&lt;br style=&quot;font-size: 12px;&quot;&gt;&lt;/td&gt;&lt;/tr&gt;&lt;tr style=&quot;font-size: 12px;&quot;&gt;&lt;td style=&quot;font-size: 12px;&quot;&gt;&lt;br style=&quot;font-size: 12px;&quot;&gt;&lt;/td&gt;&lt;td style=&quot;font-size: 12px;&quot;&gt;&lt;br style=&quot;font-size: 12px;&quot;&gt;&lt;/td&gt;&lt;/tr&gt;&lt;tr style=&quot;font-size: 12px;&quot;&gt;&lt;td style=&quot;font-size: 12px;&quot;&gt;&lt;br style=&quot;font-size: 12px;&quot;&gt;&lt;/td&gt;&lt;td style=&quot;font-size: 12px;&quot;&gt;&lt;br style=&quot;font-size: 12px;&quot;&gt;&lt;/td&gt;&lt;/tr&gt;&lt;tr style=&quot;font-size: 12px;&quot;&gt;&lt;td style=&quot;font-size: 12px;&quot;&gt;&lt;br style=&quot;font-size: 12px;&quot;&gt;&lt;/td&gt;&lt;td style=&quot;font-size: 12px;&quot;&gt;&lt;br style=&quot;font-size: 12px;&quot;&gt;&lt;/td&gt;&lt;/tr&gt;&lt;tr style=&quot;font-size: 12px;&quot;&gt;&lt;td style=&quot;font-size: 12px;&quot;&gt;&lt;br style=&quot;font-size: 12px;&quot;&gt;&lt;/td&gt;&lt;td style=&quot;font-size: 12px;&quot;&gt;&lt;br style=&quot;font-size: 12px;&quot;&gt;&lt;/td&gt;&lt;/tr&gt;&lt;tr style=&quot;font-size: 12px;&quot;&gt;&lt;td style=&quot;font-size: 12px;&quot;&gt;&lt;br style=&quot;font-size: 12px;&quot;&gt;&lt;/td&gt;&lt;td style=&quot;font-size: 12px;&quot;&gt;&lt;br style=&quot;font-size: 12px;&quot;&gt;&lt;/td&gt;&lt;/tr&gt;&lt;tr style=&quot;font-size: 12px;&quot;&gt;&lt;td style=&quot;font-size: 12px;&quot;&gt;&lt;br style=&quot;font-size: 12px;&quot;&gt;&lt;/td&gt;&lt;td style=&quot;font-size: 12px;&quot;&gt;&lt;br style=&quot;font-size: 12px;&quot;&gt;&lt;/td&gt;&lt;/tr&gt;&lt;tr style=&quot;font-size: 12px;&quot;&gt;&lt;td style=&quot;font-size: 12px;&quot;&gt;&lt;br style=&quot;font-size: 12px;&quot;&gt;&lt;/td&gt;&lt;td style=&quot;font-size: 12px;&quot;&gt;&lt;br style=&quot;font-size: 12px;&quot;&gt;&lt;/td&gt;&lt;/tr&gt;&lt;/tbody&gt;&lt;/table&gt;" style="verticalAlign=top;align=left;overflow=fill;html=1;rounded=0;shadow=0;comic=0;labelBackgroundColor=none;strokeWidth=1;fontFamily=Verdana;fontSize=12;fillColor=#eeeeee;strokeColor=#36393d;" parent="1" vertex="1">
          <mxGeometry x="-2510" y="1607.5" width="210" height="125" as="geometry" />
        </mxCell>
        <mxCell id="7crgOBvIinUt4j5GadzT-193" style="edgeStyle=orthogonalEdgeStyle;rounded=0;orthogonalLoop=1;jettySize=auto;html=1;exitX=0.5;exitY=0;exitDx=0;exitDy=0;entryX=0;entryY=0.5;entryDx=0;entryDy=0;fontColor=#000000;" parent="1" source="7crgOBvIinUt4j5GadzT-194" target="7crgOBvIinUt4j5GadzT-195" edge="1">
          <mxGeometry relative="1" as="geometry" />
        </mxCell>
        <mxCell id="7crgOBvIinUt4j5GadzT-194" value="&lt;div style=&quot;box-sizing: border-box; width: 100%; background: rgb(228, 228, 228); padding: 2px; font-size: 12px;&quot;&gt;orders&lt;/div&gt;&lt;table style=&quot;width: 100%; font-size: 12px;&quot; cellpadding=&quot;2&quot; cellspacing=&quot;0&quot;&gt;&lt;tbody style=&quot;font-size: 12px;&quot;&gt;&lt;tr style=&quot;font-size: 12px;&quot;&gt;&lt;td style=&quot;font-size: 12px;&quot;&gt;PK&lt;/td&gt;&lt;td style=&quot;font-size: 12px;&quot;&gt;id INT&lt;/td&gt;&lt;/tr&gt;&lt;tr style=&quot;font-size: 12px;&quot;&gt;&lt;td style=&quot;font-size: 12px;&quot;&gt;FK&lt;/td&gt;&lt;td style=&quot;font-size: 12px;&quot;&gt;user_id INT&lt;/td&gt;&lt;/tr&gt;&lt;tr style=&quot;font-size: 12px;&quot;&gt;&lt;td style=&quot;font-size: 12px;&quot;&gt;&lt;/td&gt;&lt;td style=&quot;font-size: 12px;&quot;&gt;check_out VARCHAR(255)&lt;/td&gt;&lt;/tr&gt;&lt;tr style=&quot;font-size: 12px;&quot;&gt;&lt;td style=&quot;font-size: 12px;&quot;&gt;&lt;br style=&quot;font-size: 12px;&quot;&gt;&lt;/td&gt;&lt;td style=&quot;font-size: 12px;&quot;&gt;shipping VARCHAR(255)&lt;/td&gt;&lt;/tr&gt;&lt;tr style=&quot;font-size: 12px;&quot;&gt;&lt;td style=&quot;font-size: 12px;&quot;&gt;&lt;br style=&quot;font-size: 12px;&quot;&gt;&lt;/td&gt;&lt;td style=&quot;font-size: 12px;&quot;&gt;payment VARCHAR(255)&lt;/td&gt;&lt;/tr&gt;&lt;tr style=&quot;font-size: 12px;&quot;&gt;&lt;td style=&quot;font-size: 12px;&quot;&gt;&lt;br style=&quot;font-size: 12px;&quot;&gt;&lt;/td&gt;&lt;td style=&quot;font-size: 12px;&quot;&gt;status&lt;/td&gt;&lt;/tr&gt;&lt;tr style=&quot;font-size: 12px;&quot;&gt;&lt;td style=&quot;font-size: 12px;&quot;&gt;&lt;br style=&quot;font-size: 12px;&quot;&gt;&lt;/td&gt;&lt;td style=&quot;font-size: 12px;&quot;&gt;tracking_number DATE&lt;/td&gt;&lt;/tr&gt;&lt;tr style=&quot;font-size: 12px;&quot;&gt;&lt;td style=&quot;font-size: 12px;&quot;&gt;&lt;br style=&quot;font-size: 12px;&quot;&gt;&lt;/td&gt;&lt;td style=&quot;font-size: 12px;&quot;&gt;&lt;br style=&quot;font-size: 12px;&quot;&gt;&lt;/td&gt;&lt;/tr&gt;&lt;tr style=&quot;font-size: 12px;&quot;&gt;&lt;td style=&quot;font-size: 12px;&quot;&gt;&lt;br style=&quot;font-size: 12px;&quot;&gt;&lt;/td&gt;&lt;td style=&quot;font-size: 12px;&quot;&gt;&lt;br style=&quot;font-size: 12px;&quot;&gt;&lt;/td&gt;&lt;/tr&gt;&lt;tr style=&quot;font-size: 12px;&quot;&gt;&lt;td style=&quot;font-size: 12px;&quot;&gt;&lt;br style=&quot;font-size: 12px;&quot;&gt;&lt;/td&gt;&lt;td style=&quot;font-size: 12px;&quot;&gt;&lt;br style=&quot;font-size: 12px;&quot;&gt;&lt;/td&gt;&lt;/tr&gt;&lt;tr style=&quot;font-size: 12px;&quot;&gt;&lt;td style=&quot;font-size: 12px;&quot;&gt;&lt;br style=&quot;font-size: 12px;&quot;&gt;&lt;/td&gt;&lt;td style=&quot;font-size: 12px;&quot;&gt;&lt;br style=&quot;font-size: 12px;&quot;&gt;&lt;/td&gt;&lt;/tr&gt;&lt;tr style=&quot;font-size: 12px;&quot;&gt;&lt;td style=&quot;font-size: 12px;&quot;&gt;&lt;br style=&quot;font-size: 12px;&quot;&gt;&lt;/td&gt;&lt;td style=&quot;font-size: 12px;&quot;&gt;&lt;br style=&quot;font-size: 12px;&quot;&gt;&lt;/td&gt;&lt;/tr&gt;&lt;tr style=&quot;font-size: 12px;&quot;&gt;&lt;td style=&quot;font-size: 12px;&quot;&gt;&lt;br style=&quot;font-size: 12px;&quot;&gt;&lt;/td&gt;&lt;td style=&quot;font-size: 12px;&quot;&gt;&lt;br style=&quot;font-size: 12px;&quot;&gt;&lt;/td&gt;&lt;/tr&gt;&lt;tr style=&quot;font-size: 12px;&quot;&gt;&lt;td style=&quot;font-size: 12px;&quot;&gt;&lt;br style=&quot;font-size: 12px;&quot;&gt;&lt;/td&gt;&lt;td style=&quot;font-size: 12px;&quot;&gt;&lt;br style=&quot;font-size: 12px;&quot;&gt;&lt;/td&gt;&lt;/tr&gt;&lt;tr style=&quot;font-size: 12px;&quot;&gt;&lt;td style=&quot;font-size: 12px;&quot;&gt;&lt;br style=&quot;font-size: 12px;&quot;&gt;&lt;/td&gt;&lt;td style=&quot;font-size: 12px;&quot;&gt;&lt;br style=&quot;font-size: 12px;&quot;&gt;&lt;/td&gt;&lt;/tr&gt;&lt;tr style=&quot;font-size: 12px;&quot;&gt;&lt;td style=&quot;font-size: 12px;&quot;&gt;&lt;br style=&quot;font-size: 12px;&quot;&gt;&lt;/td&gt;&lt;td style=&quot;font-size: 12px;&quot;&gt;&lt;br style=&quot;font-size: 12px;&quot;&gt;&lt;/td&gt;&lt;/tr&gt;&lt;tr style=&quot;font-size: 12px;&quot;&gt;&lt;td style=&quot;font-size: 12px;&quot;&gt;&lt;br style=&quot;font-size: 12px;&quot;&gt;&lt;/td&gt;&lt;td style=&quot;font-size: 12px;&quot;&gt;&lt;br style=&quot;font-size: 12px;&quot;&gt;&lt;/td&gt;&lt;/tr&gt;&lt;/tbody&gt;&lt;/table&gt;" style="verticalAlign=top;align=left;overflow=fill;html=1;rounded=0;shadow=0;comic=0;labelBackgroundColor=none;strokeWidth=1;fontFamily=Verdana;fontSize=12;fillColor=#ffff88;strokeColor=#36393d;" parent="1" vertex="1">
          <mxGeometry x="-1480" y="2065" width="210" height="160" as="geometry" />
        </mxCell>
        <mxCell id="7crgOBvIinUt4j5GadzT-195" value="&lt;div style=&quot;box-sizing: border-box; width: 100%; background: rgb(228, 228, 228); padding: 2px; font-size: 12px;&quot;&gt;order_details&lt;/div&gt;&lt;table style=&quot;width: 100%; font-size: 12px;&quot; cellpadding=&quot;2&quot; cellspacing=&quot;0&quot;&gt;&lt;tbody style=&quot;font-size: 12px;&quot;&gt;&lt;tr style=&quot;font-size: 12px;&quot;&gt;&lt;td style=&quot;font-size: 12px;&quot;&gt;PK&lt;/td&gt;&lt;td style=&quot;font-size: 12px;&quot;&gt;id INT&lt;/td&gt;&lt;/tr&gt;&lt;tr style=&quot;font-size: 12px;&quot;&gt;&lt;td style=&quot;font-size: 12px;&quot;&gt;FK&lt;/td&gt;&lt;td style=&quot;font-size: 12px;&quot;&gt;order_id INT&lt;/td&gt;&lt;/tr&gt;&lt;tr style=&quot;font-size: 12px;&quot;&gt;&lt;td style=&quot;font-size: 12px;&quot;&gt;FK&lt;/td&gt;&lt;td style=&quot;font-size: 12px;&quot;&gt;product_id INT&lt;/td&gt;&lt;/tr&gt;&lt;tr style=&quot;font-size: 12px;&quot;&gt;&lt;td style=&quot;font-size: 12px;&quot;&gt;&lt;br style=&quot;font-size: 12px;&quot;&gt;&lt;/td&gt;&lt;td style=&quot;font-size: 12px;&quot;&gt;quantity INT&lt;/td&gt;&lt;/tr&gt;&lt;tr style=&quot;font-size: 12px;&quot;&gt;&lt;td style=&quot;font-size: 12px;&quot;&gt;&lt;br style=&quot;font-size: 12px;&quot;&gt;&lt;/td&gt;&lt;td style=&quot;font-size: 12px;&quot;&gt;&lt;br style=&quot;font-size: 12px;&quot;&gt;&lt;/td&gt;&lt;/tr&gt;&lt;tr style=&quot;font-size: 12px;&quot;&gt;&lt;td style=&quot;font-size: 12px;&quot;&gt;&lt;br style=&quot;font-size: 12px;&quot;&gt;&lt;/td&gt;&lt;td style=&quot;font-size: 12px;&quot;&gt;&lt;br style=&quot;font-size: 12px;&quot;&gt;&lt;/td&gt;&lt;/tr&gt;&lt;tr style=&quot;font-size: 12px;&quot;&gt;&lt;td style=&quot;font-size: 12px;&quot;&gt;&lt;br style=&quot;font-size: 12px;&quot;&gt;&lt;/td&gt;&lt;td style=&quot;font-size: 12px;&quot;&gt;&lt;br style=&quot;font-size: 12px;&quot;&gt;&lt;/td&gt;&lt;/tr&gt;&lt;tr style=&quot;font-size: 12px;&quot;&gt;&lt;td style=&quot;font-size: 12px;&quot;&gt;&lt;br style=&quot;font-size: 12px;&quot;&gt;&lt;/td&gt;&lt;td style=&quot;font-size: 12px;&quot;&gt;&lt;br style=&quot;font-size: 12px;&quot;&gt;&lt;/td&gt;&lt;/tr&gt;&lt;tr style=&quot;font-size: 12px;&quot;&gt;&lt;td style=&quot;font-size: 12px;&quot;&gt;&lt;br style=&quot;font-size: 12px;&quot;&gt;&lt;/td&gt;&lt;td style=&quot;font-size: 12px;&quot;&gt;&lt;br style=&quot;font-size: 12px;&quot;&gt;&lt;/td&gt;&lt;/tr&gt;&lt;tr style=&quot;font-size: 12px;&quot;&gt;&lt;td style=&quot;font-size: 12px;&quot;&gt;&lt;br style=&quot;font-size: 12px;&quot;&gt;&lt;/td&gt;&lt;td style=&quot;font-size: 12px;&quot;&gt;&lt;br style=&quot;font-size: 12px;&quot;&gt;&lt;/td&gt;&lt;/tr&gt;&lt;tr style=&quot;font-size: 12px;&quot;&gt;&lt;td style=&quot;font-size: 12px;&quot;&gt;&lt;br style=&quot;font-size: 12px;&quot;&gt;&lt;/td&gt;&lt;td style=&quot;font-size: 12px;&quot;&gt;&lt;br style=&quot;font-size: 12px;&quot;&gt;&lt;/td&gt;&lt;/tr&gt;&lt;tr style=&quot;font-size: 12px;&quot;&gt;&lt;td style=&quot;font-size: 12px;&quot;&gt;&lt;br style=&quot;font-size: 12px;&quot;&gt;&lt;/td&gt;&lt;td style=&quot;font-size: 12px;&quot;&gt;&lt;br style=&quot;font-size: 12px;&quot;&gt;&lt;/td&gt;&lt;/tr&gt;&lt;tr style=&quot;font-size: 12px;&quot;&gt;&lt;td style=&quot;font-size: 12px;&quot;&gt;&lt;br style=&quot;font-size: 12px;&quot;&gt;&lt;/td&gt;&lt;td style=&quot;font-size: 12px;&quot;&gt;&lt;br style=&quot;font-size: 12px;&quot;&gt;&lt;/td&gt;&lt;/tr&gt;&lt;tr style=&quot;font-size: 12px;&quot;&gt;&lt;td style=&quot;font-size: 12px;&quot;&gt;&lt;br style=&quot;font-size: 12px;&quot;&gt;&lt;/td&gt;&lt;td style=&quot;font-size: 12px;&quot;&gt;&lt;br style=&quot;font-size: 12px;&quot;&gt;&lt;/td&gt;&lt;/tr&gt;&lt;tr style=&quot;font-size: 12px;&quot;&gt;&lt;td style=&quot;font-size: 12px;&quot;&gt;&lt;br style=&quot;font-size: 12px;&quot;&gt;&lt;/td&gt;&lt;td style=&quot;font-size: 12px;&quot;&gt;&lt;br style=&quot;font-size: 12px;&quot;&gt;&lt;/td&gt;&lt;/tr&gt;&lt;tr style=&quot;font-size: 12px;&quot;&gt;&lt;td style=&quot;font-size: 12px;&quot;&gt;&lt;br style=&quot;font-size: 12px;&quot;&gt;&lt;/td&gt;&lt;td style=&quot;font-size: 12px;&quot;&gt;&lt;br style=&quot;font-size: 12px;&quot;&gt;&lt;/td&gt;&lt;/tr&gt;&lt;tr style=&quot;font-size: 12px;&quot;&gt;&lt;td style=&quot;font-size: 12px;&quot;&gt;&lt;br style=&quot;font-size: 12px;&quot;&gt;&lt;/td&gt;&lt;td style=&quot;font-size: 12px;&quot;&gt;&lt;br style=&quot;font-size: 12px;&quot;&gt;&lt;/td&gt;&lt;/tr&gt;&lt;/tbody&gt;&lt;/table&gt;" style="verticalAlign=top;align=left;overflow=fill;html=1;rounded=0;shadow=0;comic=0;labelBackgroundColor=none;strokeWidth=1;fontFamily=Verdana;fontSize=12;fillColor=#cce5ff;strokeColor=#36393d;" parent="1" vertex="1">
          <mxGeometry x="-1510" y="1920" width="210" height="100" as="geometry" />
        </mxCell>
        <mxCell id="7crgOBvIinUt4j5GadzT-196" value="&lt;div style=&quot;box-sizing: border-box; width: 100%; background: rgb(228, 228, 228); padding: 2px; font-size: 12px;&quot;&gt;product_attributes&lt;/div&gt;&lt;table style=&quot;width: 100%; font-size: 12px;&quot; cellpadding=&quot;2&quot; cellspacing=&quot;0&quot;&gt;&lt;tbody style=&quot;font-size: 12px;&quot;&gt;&lt;tr style=&quot;font-size: 12px;&quot;&gt;&lt;td style=&quot;font-size: 12px;&quot;&gt;PK&lt;/td&gt;&lt;td style=&quot;font-size: 12px;&quot;&gt;id INT&lt;/td&gt;&lt;/tr&gt;&lt;tr style=&quot;font-size: 12px;&quot;&gt;&lt;td style=&quot;font-size: 12px;&quot;&gt;FK&lt;/td&gt;&lt;td style=&quot;font-size: 12px;&quot;&gt;product_id INT&lt;/td&gt;&lt;/tr&gt;&lt;tr style=&quot;font-size: 12px;&quot;&gt;&lt;td style=&quot;font-size: 12px;&quot;&gt;&lt;/td&gt;&lt;td style=&quot;font-size: 12px;&quot;&gt;brand VARCHAR(255)&lt;/td&gt;&lt;/tr&gt;&lt;tr style=&quot;font-size: 12px;&quot;&gt;&lt;td style=&quot;font-size: 12px;&quot;&gt;&lt;br style=&quot;font-size: 12px;&quot;&gt;&lt;/td&gt;&lt;td style=&quot;font-size: 12px;&quot;&gt;size VARCHAR(255)&lt;/td&gt;&lt;/tr&gt;&lt;tr style=&quot;font-size: 12px;&quot;&gt;&lt;td style=&quot;font-size: 12px;&quot;&gt;&lt;br style=&quot;font-size: 12px;&quot;&gt;&lt;/td&gt;&lt;td style=&quot;font-size: 12px;&quot;&gt;material VARCHAR(255)&lt;/td&gt;&lt;/tr&gt;&lt;tr style=&quot;font-size: 12px;&quot;&gt;&lt;td style=&quot;font-size: 12px;&quot;&gt;&lt;br style=&quot;font-size: 12px;&quot;&gt;&lt;/td&gt;&lt;td style=&quot;font-size: 12px;&quot;&gt;manufacturer VARCHAR(255)&lt;/td&gt;&lt;/tr&gt;&lt;tr style=&quot;font-size: 12px;&quot;&gt;&lt;td style=&quot;font-size: 12px;&quot;&gt;&lt;br style=&quot;font-size: 12px;&quot;&gt;&lt;/td&gt;&lt;td style=&quot;font-size: 12px;&quot;&gt;model VARCHAR(255)&lt;/td&gt;&lt;/tr&gt;&lt;tr style=&quot;font-size: 12px;&quot;&gt;&lt;td style=&quot;font-size: 12px;&quot;&gt;&lt;br style=&quot;font-size: 12px;&quot;&gt;&lt;/td&gt;&lt;td style=&quot;font-size: 12px;&quot;&gt;&lt;br style=&quot;font-size: 12px;&quot;&gt;&lt;/td&gt;&lt;/tr&gt;&lt;tr style=&quot;font-size: 12px;&quot;&gt;&lt;td style=&quot;font-size: 12px;&quot;&gt;&lt;br style=&quot;font-size: 12px;&quot;&gt;&lt;/td&gt;&lt;td style=&quot;font-size: 12px;&quot;&gt;&lt;br style=&quot;font-size: 12px;&quot;&gt;&lt;/td&gt;&lt;/tr&gt;&lt;tr style=&quot;font-size: 12px;&quot;&gt;&lt;td style=&quot;font-size: 12px;&quot;&gt;&lt;br style=&quot;font-size: 12px;&quot;&gt;&lt;/td&gt;&lt;td style=&quot;font-size: 12px;&quot;&gt;&lt;br style=&quot;font-size: 12px;&quot;&gt;&lt;/td&gt;&lt;/tr&gt;&lt;tr style=&quot;font-size: 12px;&quot;&gt;&lt;td style=&quot;font-size: 12px;&quot;&gt;&lt;br style=&quot;font-size: 12px;&quot;&gt;&lt;/td&gt;&lt;td style=&quot;font-size: 12px;&quot;&gt;&lt;br style=&quot;font-size: 12px;&quot;&gt;&lt;/td&gt;&lt;/tr&gt;&lt;tr style=&quot;font-size: 12px;&quot;&gt;&lt;td style=&quot;font-size: 12px;&quot;&gt;&lt;br style=&quot;font-size: 12px;&quot;&gt;&lt;/td&gt;&lt;td style=&quot;font-size: 12px;&quot;&gt;&lt;br style=&quot;font-size: 12px;&quot;&gt;&lt;/td&gt;&lt;/tr&gt;&lt;tr style=&quot;font-size: 12px;&quot;&gt;&lt;td style=&quot;font-size: 12px;&quot;&gt;&lt;br style=&quot;font-size: 12px;&quot;&gt;&lt;/td&gt;&lt;td style=&quot;font-size: 12px;&quot;&gt;&lt;br style=&quot;font-size: 12px;&quot;&gt;&lt;/td&gt;&lt;/tr&gt;&lt;tr style=&quot;font-size: 12px;&quot;&gt;&lt;td style=&quot;font-size: 12px;&quot;&gt;&lt;br style=&quot;font-size: 12px;&quot;&gt;&lt;/td&gt;&lt;td style=&quot;font-size: 12px;&quot;&gt;&lt;br style=&quot;font-size: 12px;&quot;&gt;&lt;/td&gt;&lt;/tr&gt;&lt;tr style=&quot;font-size: 12px;&quot;&gt;&lt;td style=&quot;font-size: 12px;&quot;&gt;&lt;br style=&quot;font-size: 12px;&quot;&gt;&lt;/td&gt;&lt;td style=&quot;font-size: 12px;&quot;&gt;&lt;br style=&quot;font-size: 12px;&quot;&gt;&lt;/td&gt;&lt;/tr&gt;&lt;tr style=&quot;font-size: 12px;&quot;&gt;&lt;td style=&quot;font-size: 12px;&quot;&gt;&lt;br style=&quot;font-size: 12px;&quot;&gt;&lt;/td&gt;&lt;td style=&quot;font-size: 12px;&quot;&gt;&lt;br style=&quot;font-size: 12px;&quot;&gt;&lt;/td&gt;&lt;/tr&gt;&lt;tr style=&quot;font-size: 12px;&quot;&gt;&lt;td style=&quot;font-size: 12px;&quot;&gt;&lt;br style=&quot;font-size: 12px;&quot;&gt;&lt;/td&gt;&lt;td style=&quot;font-size: 12px;&quot;&gt;&lt;br style=&quot;font-size: 12px;&quot;&gt;&lt;/td&gt;&lt;/tr&gt;&lt;/tbody&gt;&lt;/table&gt;" style="verticalAlign=top;align=left;overflow=fill;html=1;rounded=0;shadow=0;comic=0;labelBackgroundColor=none;strokeWidth=1;fontFamily=Verdana;fontSize=12;fillColor=#f9f7ed;strokeColor=#36393d;" parent="1" vertex="1">
          <mxGeometry x="-1480" y="1650" width="220" height="155" as="geometry" />
        </mxCell>
        <mxCell id="7crgOBvIinUt4j5GadzT-197" style="edgeStyle=orthogonalEdgeStyle;rounded=0;orthogonalLoop=1;jettySize=auto;html=1;exitX=0.25;exitY=1;exitDx=0;exitDy=0;entryX=0.75;entryY=0;entryDx=0;entryDy=0;fontColor=#000000;" parent="1" source="7crgOBvIinUt4j5GadzT-203" target="7crgOBvIinUt4j5GadzT-187" edge="1">
          <mxGeometry relative="1" as="geometry">
            <Array as="points">
              <mxPoint x="-1730" y="2080" />
              <mxPoint x="-1825" y="2080" />
            </Array>
          </mxGeometry>
        </mxCell>
        <mxCell id="7crgOBvIinUt4j5GadzT-198" style="edgeStyle=orthogonalEdgeStyle;rounded=0;orthogonalLoop=1;jettySize=auto;html=1;exitX=0.75;exitY=1;exitDx=0;exitDy=0;entryX=0.5;entryY=0;entryDx=0;entryDy=0;fontColor=#000000;" parent="1" source="7crgOBvIinUt4j5GadzT-203" target="7crgOBvIinUt4j5GadzT-189" edge="1">
          <mxGeometry relative="1" as="geometry" />
        </mxCell>
        <mxCell id="7crgOBvIinUt4j5GadzT-199" style="edgeStyle=orthogonalEdgeStyle;rounded=0;orthogonalLoop=1;jettySize=auto;html=1;exitX=1;exitY=0.75;exitDx=0;exitDy=0;entryX=0;entryY=0.25;entryDx=0;entryDy=0;fontColor=#000000;" parent="1" source="7crgOBvIinUt4j5GadzT-203" target="7crgOBvIinUt4j5GadzT-195" edge="1">
          <mxGeometry relative="1" as="geometry" />
        </mxCell>
        <mxCell id="7crgOBvIinUt4j5GadzT-200" style="edgeStyle=orthogonalEdgeStyle;rounded=0;orthogonalLoop=1;jettySize=auto;html=1;exitX=1;exitY=0.5;exitDx=0;exitDy=0;entryX=0;entryY=0.25;entryDx=0;entryDy=0;fontColor=#000000;" parent="1" source="7crgOBvIinUt4j5GadzT-203" target="7crgOBvIinUt4j5GadzT-204" edge="1">
          <mxGeometry relative="1" as="geometry" />
        </mxCell>
        <mxCell id="7crgOBvIinUt4j5GadzT-201" style="edgeStyle=orthogonalEdgeStyle;rounded=0;orthogonalLoop=1;jettySize=auto;html=1;exitX=0.5;exitY=0;exitDx=0;exitDy=0;entryX=0;entryY=0.25;entryDx=0;entryDy=0;fontColor=#000000;" parent="1" source="7crgOBvIinUt4j5GadzT-203" target="7crgOBvIinUt4j5GadzT-196" edge="1">
          <mxGeometry relative="1" as="geometry">
            <Array as="points">
              <mxPoint x="-1675" y="1700" />
              <mxPoint x="-1540" y="1700" />
              <mxPoint x="-1540" y="1689" />
            </Array>
          </mxGeometry>
        </mxCell>
        <mxCell id="7crgOBvIinUt4j5GadzT-202" style="edgeStyle=orthogonalEdgeStyle;rounded=0;orthogonalLoop=1;jettySize=auto;html=1;exitX=0.25;exitY=0;exitDx=0;exitDy=0;entryX=0.25;entryY=1;entryDx=0;entryDy=0;fontColor=#000000;" parent="1" source="7crgOBvIinUt4j5GadzT-203" target="7crgOBvIinUt4j5GadzT-188" edge="1">
          <mxGeometry relative="1" as="geometry" />
        </mxCell>
        <mxCell id="7crgOBvIinUt4j5GadzT-203" value="&lt;div style=&quot;box-sizing: border-box; width: 100%; background: rgb(228, 228, 228); padding: 2px; font-size: 12px;&quot;&gt;products&lt;/div&gt;&lt;table style=&quot;width: 100%; font-size: 12px;&quot; cellpadding=&quot;2&quot; cellspacing=&quot;0&quot;&gt;&lt;tbody style=&quot;font-size: 12px;&quot;&gt;&lt;tr style=&quot;font-size: 12px;&quot;&gt;&lt;td style=&quot;font-size: 12px;&quot;&gt;PK&lt;/td&gt;&lt;td style=&quot;font-size: 12px;&quot;&gt;id INT&lt;/td&gt;&lt;/tr&gt;&lt;tr style=&quot;font-size: 12px;&quot;&gt;&lt;td style=&quot;font-size: 12px;&quot;&gt;&lt;br style=&quot;font-size: 12px;&quot;&gt;&lt;/td&gt;&lt;td style=&quot;font-size: 12px;&quot;&gt;name VARCHAR(255)&lt;/td&gt;&lt;/tr&gt;&lt;tr style=&quot;font-size: 12px;&quot;&gt;&lt;td style=&quot;font-size: 12px;&quot;&gt;&lt;/td&gt;&lt;td style=&quot;font-size: 12px;&quot;&gt;thumb VARCHAR(255)&lt;/td&gt;&lt;/tr&gt;&lt;tr style=&quot;font-size: 12px;&quot;&gt;&lt;td style=&quot;font-size: 12px;&quot;&gt;&lt;br style=&quot;font-size: 12px;&quot;&gt;&lt;/td&gt;&lt;td style=&quot;font-size: 12px;&quot;&gt;description VARCHAR(255)&lt;/td&gt;&lt;/tr&gt;&lt;tr style=&quot;font-size: 12px;&quot;&gt;&lt;td style=&quot;font-size: 12px;&quot;&gt;&lt;br style=&quot;font-size: 12px;&quot;&gt;&lt;/td&gt;&lt;td style=&quot;font-size: 12px;&quot;&gt;slug VARCHAR(255)&lt;/td&gt;&lt;/tr&gt;&lt;tr style=&quot;font-size: 12px;&quot;&gt;&lt;td style=&quot;font-size: 12px;&quot;&gt;&lt;br style=&quot;font-size: 12px;&quot;&gt;&lt;/td&gt;&lt;td style=&quot;font-size: 12px;&quot;&gt;price DOUBLE&lt;/td&gt;&lt;/tr&gt;&lt;tr style=&quot;font-size: 12px;&quot;&gt;&lt;td style=&quot;font-size: 12px;&quot;&gt;FK&lt;/td&gt;&lt;td style=&quot;font-size: 12px;&quot;&gt;category_id INT&lt;/td&gt;&lt;/tr&gt;&lt;tr style=&quot;font-size: 12px;&quot;&gt;&lt;td style=&quot;font-size: 12px;&quot;&gt;FK&lt;/td&gt;&lt;td style=&quot;font-size: 12px;&quot;&gt;shop_id INT&lt;/td&gt;&lt;/tr&gt;&lt;tr style=&quot;font-size: 12px;&quot;&gt;&lt;td style=&quot;font-size: 12px;&quot;&gt;&lt;br style=&quot;font-size: 12px;&quot;&gt;&lt;/td&gt;&lt;td style=&quot;font-size: 12px;&quot;&gt;rating FLOAT&lt;/td&gt;&lt;/tr&gt;&lt;tr style=&quot;font-size: 12px;&quot;&gt;&lt;td style=&quot;font-size: 12px;&quot;&gt;&lt;br style=&quot;font-size: 12px;&quot;&gt;&lt;/td&gt;&lt;td style=&quot;font-size: 12px;&quot;&gt;variations VARCHAR(255)&lt;/td&gt;&lt;/tr&gt;&lt;tr style=&quot;font-size: 12px;&quot;&gt;&lt;td style=&quot;font-size: 12px;&quot;&gt;&lt;br style=&quot;font-size: 12px;&quot;&gt;&lt;/td&gt;&lt;td style=&quot;font-size: 12px;&quot;&gt;is_draft BOOLEAN&lt;/td&gt;&lt;/tr&gt;&lt;tr style=&quot;font-size: 12px;&quot;&gt;&lt;td style=&quot;font-size: 12px;&quot;&gt;&lt;br style=&quot;font-size: 12px;&quot;&gt;&lt;/td&gt;&lt;td style=&quot;font-size: 12px;&quot;&gt;is_published BOOLEAN&lt;/td&gt;&lt;/tr&gt;&lt;tr style=&quot;font-size: 12px;&quot;&gt;&lt;td style=&quot;font-size: 12px;&quot;&gt;&lt;br style=&quot;font-size: 12px;&quot;&gt;&lt;/td&gt;&lt;td style=&quot;font-size: 12px;&quot;&gt;&lt;br style=&quot;font-size: 12px;&quot;&gt;&lt;/td&gt;&lt;/tr&gt;&lt;tr style=&quot;font-size: 12px;&quot;&gt;&lt;td style=&quot;font-size: 12px;&quot;&gt;&lt;br style=&quot;font-size: 12px;&quot;&gt;&lt;/td&gt;&lt;td style=&quot;font-size: 12px;&quot;&gt;&lt;br style=&quot;font-size: 12px;&quot;&gt;&lt;/td&gt;&lt;/tr&gt;&lt;tr style=&quot;font-size: 12px;&quot;&gt;&lt;td style=&quot;font-size: 12px;&quot;&gt;&lt;br style=&quot;font-size: 12px;&quot;&gt;&lt;/td&gt;&lt;td style=&quot;font-size: 12px;&quot;&gt;&lt;br style=&quot;font-size: 12px;&quot;&gt;&lt;/td&gt;&lt;/tr&gt;&lt;tr style=&quot;font-size: 12px;&quot;&gt;&lt;td style=&quot;font-size: 12px;&quot;&gt;&lt;br style=&quot;font-size: 12px;&quot;&gt;&lt;/td&gt;&lt;td style=&quot;font-size: 12px;&quot;&gt;&lt;br style=&quot;font-size: 12px;&quot;&gt;&lt;/td&gt;&lt;/tr&gt;&lt;tr style=&quot;font-size: 12px;&quot;&gt;&lt;td style=&quot;font-size: 12px;&quot;&gt;&lt;br style=&quot;font-size: 12px;&quot;&gt;&lt;/td&gt;&lt;td style=&quot;font-size: 12px;&quot;&gt;&lt;br style=&quot;font-size: 12px;&quot;&gt;&lt;/td&gt;&lt;/tr&gt;&lt;/tbody&gt;&lt;/table&gt;" style="verticalAlign=top;align=left;overflow=fill;html=1;rounded=0;shadow=0;comic=0;labelBackgroundColor=none;strokeWidth=1;fontFamily=Verdana;fontSize=12;fillColor=#cdeb8b;strokeColor=#36393d;" parent="1" vertex="1">
          <mxGeometry x="-1785" y="1740" width="220" height="250" as="geometry" />
        </mxCell>
        <mxCell id="7crgOBvIinUt4j5GadzT-204" value="&lt;div style=&quot;box-sizing: border-box; width: 100%; background: rgb(228, 228, 228); padding: 2px; font-size: 12px;&quot;&gt;categories&lt;/div&gt;&lt;table style=&quot;width: 100%; font-size: 12px;&quot; cellpadding=&quot;2&quot; cellspacing=&quot;0&quot;&gt;&lt;tbody style=&quot;font-size: 12px;&quot;&gt;&lt;tr style=&quot;font-size: 12px;&quot;&gt;&lt;td style=&quot;font-size: 12px;&quot;&gt;PK&lt;/td&gt;&lt;td style=&quot;font-size: 12px;&quot;&gt;id INT&lt;/td&gt;&lt;/tr&gt;&lt;tr style=&quot;font-size: 12px;&quot;&gt;&lt;td style=&quot;font-size: 12px;&quot;&gt;&lt;br style=&quot;font-size: 12px;&quot;&gt;&lt;/td&gt;&lt;td style=&quot;font-size: 12px;&quot;&gt;name VARCHAR(255)&lt;/td&gt;&lt;/tr&gt;&lt;tr style=&quot;font-size: 12px;&quot;&gt;&lt;td style=&quot;font-size: 12px;&quot;&gt;&lt;/td&gt;&lt;td style=&quot;font-size: 12px;&quot;&gt;&lt;br style=&quot;font-size: 12px;&quot;&gt;&lt;/td&gt;&lt;/tr&gt;&lt;tr style=&quot;font-size: 12px;&quot;&gt;&lt;td style=&quot;font-size: 12px;&quot;&gt;&lt;br style=&quot;font-size: 12px;&quot;&gt;&lt;/td&gt;&lt;td style=&quot;font-size: 12px;&quot;&gt;&lt;br style=&quot;font-size: 12px;&quot;&gt;&lt;/td&gt;&lt;/tr&gt;&lt;tr style=&quot;font-size: 12px;&quot;&gt;&lt;td style=&quot;font-size: 12px;&quot;&gt;&lt;br style=&quot;font-size: 12px;&quot;&gt;&lt;/td&gt;&lt;td style=&quot;font-size: 12px;&quot;&gt;&lt;br style=&quot;font-size: 12px;&quot;&gt;&lt;/td&gt;&lt;/tr&gt;&lt;tr style=&quot;font-size: 12px;&quot;&gt;&lt;td style=&quot;font-size: 12px;&quot;&gt;&lt;br style=&quot;font-size: 12px;&quot;&gt;&lt;/td&gt;&lt;td style=&quot;font-size: 12px;&quot;&gt;&lt;br style=&quot;font-size: 12px;&quot;&gt;&lt;/td&gt;&lt;/tr&gt;&lt;tr style=&quot;font-size: 12px;&quot;&gt;&lt;td style=&quot;font-size: 12px;&quot;&gt;&lt;br style=&quot;font-size: 12px;&quot;&gt;&lt;/td&gt;&lt;td style=&quot;font-size: 12px;&quot;&gt;&lt;br style=&quot;font-size: 12px;&quot;&gt;&lt;/td&gt;&lt;/tr&gt;&lt;tr style=&quot;font-size: 12px;&quot;&gt;&lt;td style=&quot;font-size: 12px;&quot;&gt;&lt;br style=&quot;font-size: 12px;&quot;&gt;&lt;/td&gt;&lt;td style=&quot;font-size: 12px;&quot;&gt;&lt;br style=&quot;font-size: 12px;&quot;&gt;&lt;/td&gt;&lt;/tr&gt;&lt;tr style=&quot;font-size: 12px;&quot;&gt;&lt;td style=&quot;font-size: 12px;&quot;&gt;&lt;br style=&quot;font-size: 12px;&quot;&gt;&lt;/td&gt;&lt;td style=&quot;font-size: 12px;&quot;&gt;&lt;br style=&quot;font-size: 12px;&quot;&gt;&lt;/td&gt;&lt;/tr&gt;&lt;tr style=&quot;font-size: 12px;&quot;&gt;&lt;td style=&quot;font-size: 12px;&quot;&gt;&lt;br style=&quot;font-size: 12px;&quot;&gt;&lt;/td&gt;&lt;td style=&quot;font-size: 12px;&quot;&gt;&lt;br style=&quot;font-size: 12px;&quot;&gt;&lt;/td&gt;&lt;/tr&gt;&lt;tr style=&quot;font-size: 12px;&quot;&gt;&lt;td style=&quot;font-size: 12px;&quot;&gt;&lt;br style=&quot;font-size: 12px;&quot;&gt;&lt;/td&gt;&lt;td style=&quot;font-size: 12px;&quot;&gt;&lt;br style=&quot;font-size: 12px;&quot;&gt;&lt;/td&gt;&lt;/tr&gt;&lt;tr style=&quot;font-size: 12px;&quot;&gt;&lt;td style=&quot;font-size: 12px;&quot;&gt;&lt;br style=&quot;font-size: 12px;&quot;&gt;&lt;/td&gt;&lt;td style=&quot;font-size: 12px;&quot;&gt;&lt;br style=&quot;font-size: 12px;&quot;&gt;&lt;/td&gt;&lt;/tr&gt;&lt;tr style=&quot;font-size: 12px;&quot;&gt;&lt;td style=&quot;font-size: 12px;&quot;&gt;&lt;br style=&quot;font-size: 12px;&quot;&gt;&lt;/td&gt;&lt;td style=&quot;font-size: 12px;&quot;&gt;&lt;br style=&quot;font-size: 12px;&quot;&gt;&lt;/td&gt;&lt;/tr&gt;&lt;tr style=&quot;font-size: 12px;&quot;&gt;&lt;td style=&quot;font-size: 12px;&quot;&gt;&lt;br style=&quot;font-size: 12px;&quot;&gt;&lt;/td&gt;&lt;td style=&quot;font-size: 12px;&quot;&gt;&lt;br style=&quot;font-size: 12px;&quot;&gt;&lt;/td&gt;&lt;/tr&gt;&lt;tr style=&quot;font-size: 12px;&quot;&gt;&lt;td style=&quot;font-size: 12px;&quot;&gt;&lt;br style=&quot;font-size: 12px;&quot;&gt;&lt;/td&gt;&lt;td style=&quot;font-size: 12px;&quot;&gt;&lt;br style=&quot;font-size: 12px;&quot;&gt;&lt;/td&gt;&lt;/tr&gt;&lt;tr style=&quot;font-size: 12px;&quot;&gt;&lt;td style=&quot;font-size: 12px;&quot;&gt;&lt;br style=&quot;font-size: 12px;&quot;&gt;&lt;/td&gt;&lt;td style=&quot;font-size: 12px;&quot;&gt;&lt;br style=&quot;font-size: 12px;&quot;&gt;&lt;/td&gt;&lt;/tr&gt;&lt;tr style=&quot;font-size: 12px;&quot;&gt;&lt;td style=&quot;font-size: 12px;&quot;&gt;&lt;br style=&quot;font-size: 12px;&quot;&gt;&lt;/td&gt;&lt;td style=&quot;font-size: 12px;&quot;&gt;&lt;br style=&quot;font-size: 12px;&quot;&gt;&lt;/td&gt;&lt;/tr&gt;&lt;/tbody&gt;&lt;/table&gt;" style="verticalAlign=top;align=left;overflow=fill;html=1;rounded=0;shadow=0;comic=0;labelBackgroundColor=none;strokeWidth=1;fontFamily=Verdana;fontSize=12;fillColor=#ffcc99;strokeColor=#36393d;" parent="1" vertex="1">
          <mxGeometry x="-1460" y="1825" width="220" height="60" as="geometry" />
        </mxCell>
        <mxCell id="7crgOBvIinUt4j5GadzT-205" style="edgeStyle=orthogonalEdgeStyle;rounded=0;orthogonalLoop=1;jettySize=auto;html=1;exitX=0.25;exitY=1;exitDx=0;exitDy=0;entryX=0.25;entryY=0;entryDx=0;entryDy=0;fontColor=#000000;" parent="1" source="7crgOBvIinUt4j5GadzT-214" target="7crgOBvIinUt4j5GadzT-187" edge="1">
          <mxGeometry relative="1" as="geometry" />
        </mxCell>
        <mxCell id="7crgOBvIinUt4j5GadzT-206" style="edgeStyle=orthogonalEdgeStyle;rounded=0;orthogonalLoop=1;jettySize=auto;html=1;exitX=0.5;exitY=1;exitDx=0;exitDy=0;entryX=0.25;entryY=0;entryDx=0;entryDy=0;fontColor=#000000;" parent="1" source="7crgOBvIinUt4j5GadzT-214" target="7crgOBvIinUt4j5GadzT-189" edge="1">
          <mxGeometry relative="1" as="geometry">
            <Array as="points">
              <mxPoint x="-1970" y="2060" />
              <mxPoint x="-1682" y="2060" />
            </Array>
          </mxGeometry>
        </mxCell>
        <mxCell id="7crgOBvIinUt4j5GadzT-207" style="edgeStyle=orthogonalEdgeStyle;rounded=0;orthogonalLoop=1;jettySize=auto;html=1;exitX=0.75;exitY=1;exitDx=0;exitDy=0;entryX=0;entryY=0.25;entryDx=0;entryDy=0;fontColor=#000000;" parent="1" source="7crgOBvIinUt4j5GadzT-214" target="7crgOBvIinUt4j5GadzT-194" edge="1">
          <mxGeometry relative="1" as="geometry">
            <Array as="points">
              <mxPoint x="-1915" y="2040" />
              <mxPoint x="-1550" y="2040" />
              <mxPoint x="-1550" y="2105" />
            </Array>
          </mxGeometry>
        </mxCell>
        <mxCell id="7crgOBvIinUt4j5GadzT-208" style="edgeStyle=orthogonalEdgeStyle;rounded=0;orthogonalLoop=1;jettySize=auto;html=1;exitX=0.5;exitY=0;exitDx=0;exitDy=0;entryX=0.5;entryY=1;entryDx=0;entryDy=0;fontColor=#000000;" parent="1" source="7crgOBvIinUt4j5GadzT-214" target="7crgOBvIinUt4j5GadzT-185" edge="1">
          <mxGeometry relative="1" as="geometry" />
        </mxCell>
        <mxCell id="7crgOBvIinUt4j5GadzT-209" style="edgeStyle=orthogonalEdgeStyle;rounded=0;orthogonalLoop=1;jettySize=auto;html=1;exitX=0.25;exitY=0;exitDx=0;exitDy=0;entryX=1;entryY=0.75;entryDx=0;entryDy=0;fontColor=#000000;" parent="1" source="7crgOBvIinUt4j5GadzT-214" target="7crgOBvIinUt4j5GadzT-218" edge="1">
          <mxGeometry relative="1" as="geometry">
            <Array as="points">
              <mxPoint x="-2025" y="1860" />
              <mxPoint x="-2040" y="1860" />
              <mxPoint x="-2040" y="1590" />
            </Array>
          </mxGeometry>
        </mxCell>
        <mxCell id="7crgOBvIinUt4j5GadzT-210" style="edgeStyle=orthogonalEdgeStyle;rounded=0;orthogonalLoop=1;jettySize=auto;html=1;exitX=0;exitY=0;exitDx=0;exitDy=0;entryX=1;entryY=0.25;entryDx=0;entryDy=0;fontColor=#000000;" parent="1" source="7crgOBvIinUt4j5GadzT-214" target="7crgOBvIinUt4j5GadzT-192" edge="1">
          <mxGeometry relative="1" as="geometry" />
        </mxCell>
        <mxCell id="7crgOBvIinUt4j5GadzT-212" style="edgeStyle=orthogonalEdgeStyle;rounded=0;orthogonalLoop=1;jettySize=auto;html=1;exitX=0;exitY=0.25;exitDx=0;exitDy=0;entryX=1;entryY=0.5;entryDx=0;entryDy=0;" parent="1" source="7crgOBvIinUt4j5GadzT-214" target="7crgOBvIinUt4j5GadzT-271" edge="1">
          <mxGeometry relative="1" as="geometry">
            <Array as="points">
              <mxPoint x="-2120" y="1932" />
              <mxPoint x="-2120" y="2000" />
              <mxPoint x="-2205" y="2000" />
              <mxPoint x="-2205" y="2120" />
              <mxPoint x="-2490" y="2120" />
              <mxPoint x="-2490" y="2186" />
            </Array>
          </mxGeometry>
        </mxCell>
        <mxCell id="7crgOBvIinUt4j5GadzT-213" style="edgeStyle=orthogonalEdgeStyle;rounded=0;orthogonalLoop=1;jettySize=auto;html=1;exitX=0;exitY=1;exitDx=0;exitDy=0;entryX=0.5;entryY=0;entryDx=0;entryDy=0;" parent="1" source="7crgOBvIinUt4j5GadzT-214" target="7crgOBvIinUt4j5GadzT-183" edge="1">
          <mxGeometry relative="1" as="geometry" />
        </mxCell>
        <mxCell id="7crgOBvIinUt4j5GadzT-214" value="&lt;div style=&quot;box-sizing: border-box; width: 100%; background: rgb(228, 228, 228); padding: 2px; font-size: 12px;&quot;&gt;users&lt;/div&gt;&lt;table style=&quot;width: 100%; font-size: 12px;&quot; cellpadding=&quot;2&quot; cellspacing=&quot;0&quot;&gt;&lt;tbody style=&quot;font-size: 12px;&quot;&gt;&lt;tr style=&quot;font-size: 12px;&quot;&gt;&lt;td style=&quot;font-size: 12px;&quot;&gt;PK&lt;/td&gt;&lt;td style=&quot;font-size: 12px;&quot;&gt;id INT&lt;/td&gt;&lt;/tr&gt;&lt;tr style=&quot;font-size: 12px;&quot;&gt;&lt;td style=&quot;font-size: 12px;&quot;&gt;&lt;br style=&quot;font-size: 12px;&quot;&gt;&lt;/td&gt;&lt;td style=&quot;font-size: 12px;&quot;&gt;name INT&lt;/td&gt;&lt;/tr&gt;&lt;tr style=&quot;font-size: 12px;&quot;&gt;&lt;td style=&quot;font-size: 12px;&quot;&gt;&lt;/td&gt;&lt;td style=&quot;font-size: 12px;&quot;&gt;email VARCHAR(255)&lt;/td&gt;&lt;/tr&gt;&lt;tr style=&quot;font-size: 12px;&quot;&gt;&lt;td style=&quot;font-size: 12px;&quot;&gt;&lt;br style=&quot;font-size: 12px;&quot;&gt;&lt;/td&gt;&lt;td style=&quot;font-size: 12px;&quot;&gt;password VARCHAR(255)&lt;/td&gt;&lt;/tr&gt;&lt;tr style=&quot;font-size: 12px;&quot;&gt;&lt;td style=&quot;font-size: 12px;&quot;&gt;&lt;br style=&quot;font-size: 12px;&quot;&gt;&lt;/td&gt;&lt;td style=&quot;font-size: 12px;&quot;&gt;status BOOLEAN&lt;/td&gt;&lt;/tr&gt;&lt;tr style=&quot;font-size: 12px;&quot;&gt;&lt;td style=&quot;font-size: 12px;&quot;&gt;&lt;br style=&quot;font-size: 12px;&quot;&gt;&lt;/td&gt;&lt;td style=&quot;font-size: 12px;&quot;&gt;verify BOOLEAN&lt;br&gt;&lt;/td&gt;&lt;/tr&gt;&lt;tr style=&quot;font-size: 12px;&quot;&gt;&lt;td style=&quot;font-size: 12px;&quot;&gt;&lt;br style=&quot;font-size: 12px;&quot;&gt;&lt;/td&gt;&lt;td style=&quot;font-size: 12px;&quot;&gt;isUser BOOLEAN&lt;br style=&quot;font-size: 12px;&quot;&gt;&lt;/td&gt;&lt;/tr&gt;&lt;tr style=&quot;font-size: 12px;&quot;&gt;&lt;td style=&quot;font-size: 12px;&quot;&gt;&lt;br style=&quot;font-size: 12px;&quot;&gt;&lt;/td&gt;&lt;td style=&quot;font-size: 12px;&quot;&gt;isShop BOOLEAN&lt;br style=&quot;font-size: 12px;&quot;&gt;&lt;/td&gt;&lt;/tr&gt;&lt;tr style=&quot;font-size: 12px;&quot;&gt;&lt;td style=&quot;font-size: 12px;&quot;&gt;&lt;br style=&quot;font-size: 12px;&quot;&gt;&lt;/td&gt;&lt;td style=&quot;font-size: 12px;&quot;&gt;isAdmin BOOLEAN&lt;/td&gt;&lt;/tr&gt;&lt;tr style=&quot;font-size: 12px;&quot;&gt;&lt;td style=&quot;font-size: 12px;&quot;&gt;&lt;br style=&quot;font-size: 12px;&quot;&gt;&lt;/td&gt;&lt;td style=&quot;font-size: 12px;&quot;&gt;&lt;br style=&quot;font-size: 12px;&quot;&gt;&lt;/td&gt;&lt;/tr&gt;&lt;tr style=&quot;font-size: 12px;&quot;&gt;&lt;td style=&quot;font-size: 12px;&quot;&gt;&lt;br style=&quot;font-size: 12px;&quot;&gt;&lt;/td&gt;&lt;td style=&quot;font-size: 12px;&quot;&gt;&lt;br style=&quot;font-size: 12px;&quot;&gt;&lt;/td&gt;&lt;/tr&gt;&lt;tr style=&quot;font-size: 12px;&quot;&gt;&lt;td style=&quot;font-size: 12px;&quot;&gt;&lt;br style=&quot;font-size: 12px;&quot;&gt;&lt;/td&gt;&lt;td style=&quot;font-size: 12px;&quot;&gt;&lt;br style=&quot;font-size: 12px;&quot;&gt;&lt;/td&gt;&lt;/tr&gt;&lt;tr style=&quot;font-size: 12px;&quot;&gt;&lt;td style=&quot;font-size: 12px;&quot;&gt;&lt;br style=&quot;font-size: 12px;&quot;&gt;&lt;/td&gt;&lt;td style=&quot;font-size: 12px;&quot;&gt;&lt;br style=&quot;font-size: 12px;&quot;&gt;&lt;/td&gt;&lt;/tr&gt;&lt;tr style=&quot;font-size: 12px;&quot;&gt;&lt;td style=&quot;font-size: 12px;&quot;&gt;&lt;br style=&quot;font-size: 12px;&quot;&gt;&lt;/td&gt;&lt;td style=&quot;font-size: 12px;&quot;&gt;&lt;br style=&quot;font-size: 12px;&quot;&gt;&lt;/td&gt;&lt;/tr&gt;&lt;tr style=&quot;font-size: 12px;&quot;&gt;&lt;td style=&quot;font-size: 12px;&quot;&gt;&lt;br style=&quot;font-size: 12px;&quot;&gt;&lt;/td&gt;&lt;td style=&quot;font-size: 12px;&quot;&gt;&lt;br style=&quot;font-size: 12px;&quot;&gt;&lt;/td&gt;&lt;/tr&gt;&lt;tr style=&quot;font-size: 12px;&quot;&gt;&lt;td style=&quot;font-size: 12px;&quot;&gt;&lt;br style=&quot;font-size: 12px;&quot;&gt;&lt;/td&gt;&lt;td style=&quot;font-size: 12px;&quot;&gt;&lt;br style=&quot;font-size: 12px;&quot;&gt;&lt;/td&gt;&lt;/tr&gt;&lt;tr style=&quot;font-size: 12px;&quot;&gt;&lt;td style=&quot;font-size: 12px;&quot;&gt;&lt;br style=&quot;font-size: 12px;&quot;&gt;&lt;/td&gt;&lt;td style=&quot;font-size: 12px;&quot;&gt;&lt;br style=&quot;font-size: 12px;&quot;&gt;&lt;/td&gt;&lt;/tr&gt;&lt;/tbody&gt;&lt;/table&gt;" style="verticalAlign=top;align=left;overflow=fill;html=1;rounded=0;shadow=0;comic=0;labelBackgroundColor=none;strokeWidth=1;fontFamily=Verdana;fontSize=12;fillColor=#f9f7ed;strokeColor=#36393d;" parent="1" vertex="1">
          <mxGeometry x="-2080" y="1882.5" width="220" height="197.5" as="geometry" />
        </mxCell>
        <mxCell id="7crgOBvIinUt4j5GadzT-215" style="edgeStyle=orthogonalEdgeStyle;rounded=0;orthogonalLoop=1;jettySize=auto;html=1;exitX=1;exitY=0.25;exitDx=0;exitDy=0;entryX=0;entryY=0.25;entryDx=0;entryDy=0;fontColor=#000000;" parent="1" source="7crgOBvIinUt4j5GadzT-217" target="7crgOBvIinUt4j5GadzT-188" edge="1">
          <mxGeometry relative="1" as="geometry" />
        </mxCell>
        <mxCell id="7crgOBvIinUt4j5GadzT-216" style="edgeStyle=orthogonalEdgeStyle;rounded=0;orthogonalLoop=1;jettySize=auto;html=1;exitX=0;exitY=0.5;exitDx=0;exitDy=0;entryX=1;entryY=0.25;entryDx=0;entryDy=0;fontColor=#000000;" parent="1" source="7crgOBvIinUt4j5GadzT-217" target="7crgOBvIinUt4j5GadzT-218" edge="1">
          <mxGeometry relative="1" as="geometry" />
        </mxCell>
        <mxCell id="7crgOBvIinUt4j5GadzT-217" value="&lt;div style=&quot;box-sizing: border-box; width: 100%; background: rgb(228, 228, 228); padding: 2px; font-size: 12px;&quot;&gt;discounts&lt;/div&gt;&lt;table style=&quot;width: 100%; font-size: 12px;&quot; cellpadding=&quot;2&quot; cellspacing=&quot;0&quot;&gt;&lt;tbody style=&quot;font-size: 12px;&quot;&gt;&lt;tr style=&quot;font-size: 12px;&quot;&gt;&lt;td style=&quot;font-size: 12px;&quot;&gt;PK&lt;/td&gt;&lt;td style=&quot;font-size: 12px;&quot;&gt;id INT&lt;/td&gt;&lt;/tr&gt;&lt;tr style=&quot;font-size: 12px;&quot;&gt;&lt;td style=&quot;font-size: 12px;&quot;&gt;&lt;br style=&quot;font-size: 12px;&quot;&gt;&lt;/td&gt;&lt;td style=&quot;font-size: 12px;&quot;&gt;name VARCHAR(255)&lt;/td&gt;&lt;/tr&gt;&lt;tr style=&quot;font-size: 12px;&quot;&gt;&lt;td style=&quot;font-size: 12px;&quot;&gt;&lt;/td&gt;&lt;td style=&quot;font-size: 12px;&quot;&gt;description VARCHAR(255)&lt;/td&gt;&lt;/tr&gt;&lt;tr style=&quot;font-size: 12px;&quot;&gt;&lt;td style=&quot;font-size: 12px;&quot;&gt;&lt;br style=&quot;font-size: 12px;&quot;&gt;&lt;/td&gt;&lt;td style=&quot;font-size: 12px;&quot;&gt;type ENUM&lt;/td&gt;&lt;/tr&gt;&lt;tr style=&quot;font-size: 12px;&quot;&gt;&lt;td style=&quot;font-size: 12px;&quot;&gt;&lt;br style=&quot;font-size: 12px;&quot;&gt;&lt;/td&gt;&lt;td style=&quot;font-size: 12px;&quot;&gt;value DOUBLE&lt;/td&gt;&lt;/tr&gt;&lt;tr style=&quot;font-size: 12px;&quot;&gt;&lt;td style=&quot;font-size: 12px;&quot;&gt;&lt;br style=&quot;font-size: 12px;&quot;&gt;&lt;/td&gt;&lt;td style=&quot;font-size: 12px;&quot;&gt;code VARCHAR(255)&lt;/td&gt;&lt;/tr&gt;&lt;tr style=&quot;font-size: 12px;&quot;&gt;&lt;td style=&quot;font-size: 12px;&quot;&gt;&lt;br style=&quot;font-size: 12px;&quot;&gt;&lt;/td&gt;&lt;td style=&quot;font-size: 12px;&quot;&gt;start_date DATE&lt;/td&gt;&lt;/tr&gt;&lt;tr style=&quot;font-size: 12px;&quot;&gt;&lt;td style=&quot;font-size: 12px;&quot;&gt;&lt;br style=&quot;font-size: 12px;&quot;&gt;&lt;/td&gt;&lt;td style=&quot;font-size: 12px;&quot;&gt;end_date DATE&lt;/td&gt;&lt;/tr&gt;&lt;tr style=&quot;font-size: 12px;&quot;&gt;&lt;td style=&quot;font-size: 12px;&quot;&gt;&lt;br style=&quot;font-size: 12px;&quot;&gt;&lt;/td&gt;&lt;td style=&quot;font-size: 12px;&quot;&gt;max_uses INT&lt;/td&gt;&lt;/tr&gt;&lt;tr style=&quot;font-size: 12px;&quot;&gt;&lt;td style=&quot;font-size: 12px;&quot;&gt;&lt;br style=&quot;font-size: 12px;&quot;&gt;&lt;/td&gt;&lt;td style=&quot;font-size: 12px;&quot;&gt;max_value DOUBLE&lt;/td&gt;&lt;/tr&gt;&lt;tr style=&quot;font-size: 12px;&quot;&gt;&lt;td style=&quot;font-size: 12px;&quot;&gt;&lt;br style=&quot;font-size: 12px;&quot;&gt;&lt;/td&gt;&lt;td style=&quot;font-size: 12px;&quot;&gt;uses_count INT&lt;/td&gt;&lt;/tr&gt;&lt;tr style=&quot;font-size: 12px;&quot;&gt;&lt;td style=&quot;font-size: 12px;&quot;&gt;&lt;br style=&quot;font-size: 12px;&quot;&gt;&lt;/td&gt;&lt;td style=&quot;font-size: 12px;&quot;&gt;applies_to ENUM&lt;/td&gt;&lt;/tr&gt;&lt;tr style=&quot;font-size: 12px;&quot;&gt;&lt;td style=&quot;font-size: 12px;&quot;&gt;&lt;br style=&quot;font-size: 12px;&quot;&gt;&lt;/td&gt;&lt;td style=&quot;font-size: 12px;&quot;&gt;is_active BOOLEAN&lt;/td&gt;&lt;/tr&gt;&lt;tr style=&quot;font-size: 12px;&quot;&gt;&lt;td style=&quot;font-size: 12px;&quot;&gt;&lt;br style=&quot;font-size: 12px;&quot;&gt;&lt;/td&gt;&lt;td style=&quot;font-size: 12px;&quot;&gt;min_order_value DOUBLE&lt;/td&gt;&lt;/tr&gt;&lt;tr style=&quot;font-size: 12px;&quot;&gt;&lt;td style=&quot;font-size: 12px;&quot;&gt;&lt;br style=&quot;font-size: 12px;&quot;&gt;&lt;/td&gt;&lt;td style=&quot;font-size: 12px;&quot;&gt;shop_id INT&lt;/td&gt;&lt;/tr&gt;&lt;tr style=&quot;font-size: 12px;&quot;&gt;&lt;td style=&quot;font-size: 12px;&quot;&gt;&lt;br style=&quot;font-size: 12px;&quot;&gt;&lt;/td&gt;&lt;td style=&quot;font-size: 12px;&quot;&gt;&lt;br style=&quot;font-size: 12px;&quot;&gt;&lt;/td&gt;&lt;/tr&gt;&lt;tr style=&quot;font-size: 12px;&quot;&gt;&lt;td style=&quot;font-size: 12px;&quot;&gt;&lt;br style=&quot;font-size: 12px;&quot;&gt;&lt;/td&gt;&lt;td style=&quot;font-size: 12px;&quot;&gt;&lt;br style=&quot;font-size: 12px;&quot;&gt;&lt;/td&gt;&lt;/tr&gt;&lt;/tbody&gt;&lt;/table&gt;" style="verticalAlign=top;align=left;overflow=fill;html=1;rounded=0;shadow=0;comic=0;labelBackgroundColor=none;strokeWidth=1;fontFamily=Verdana;fontSize=12;fillColor=#ffcccc;strokeColor=#36393d;" parent="1" vertex="1">
          <mxGeometry x="-2040" y="1260" width="210" height="305" as="geometry" />
        </mxCell>
        <mxCell id="7crgOBvIinUt4j5GadzT-218" value="&lt;div style=&quot;box-sizing: border-box; width: 100%; background: rgb(228, 228, 228); padding: 2px; font-size: 12px;&quot;&gt;discounts_user_useds&lt;/div&gt;&lt;table style=&quot;width: 100%; font-size: 12px;&quot; cellpadding=&quot;2&quot; cellspacing=&quot;0&quot;&gt;&lt;tbody style=&quot;font-size: 12px;&quot;&gt;&lt;tr style=&quot;font-size: 12px;&quot;&gt;&lt;td style=&quot;font-size: 12px;&quot;&gt;PK&lt;/td&gt;&lt;td style=&quot;font-size: 12px;&quot;&gt;id INT&lt;/td&gt;&lt;/tr&gt;&lt;tr style=&quot;font-size: 12px;&quot;&gt;&lt;td style=&quot;font-size: 12px;&quot;&gt;FK&lt;/td&gt;&lt;td style=&quot;font-size: 12px;&quot;&gt;discount_id INT&lt;/td&gt;&lt;/tr&gt;&lt;tr style=&quot;font-size: 12px;&quot;&gt;&lt;td style=&quot;font-size: 12px;&quot;&gt;FK&lt;/td&gt;&lt;td style=&quot;font-size: 12px;&quot;&gt;user_id INT&lt;/td&gt;&lt;/tr&gt;&lt;tr style=&quot;font-size: 12px;&quot;&gt;&lt;td style=&quot;font-size: 12px;&quot;&gt;&lt;br style=&quot;font-size: 12px;&quot;&gt;&lt;/td&gt;&lt;td style=&quot;font-size: 12px;&quot;&gt;&lt;br style=&quot;font-size: 12px;&quot;&gt;&lt;/td&gt;&lt;/tr&gt;&lt;tr style=&quot;font-size: 12px;&quot;&gt;&lt;td style=&quot;font-size: 12px;&quot;&gt;&lt;br style=&quot;font-size: 12px;&quot;&gt;&lt;/td&gt;&lt;td style=&quot;font-size: 12px;&quot;&gt;&lt;br style=&quot;font-size: 12px;&quot;&gt;&lt;/td&gt;&lt;/tr&gt;&lt;tr style=&quot;font-size: 12px;&quot;&gt;&lt;td style=&quot;font-size: 12px;&quot;&gt;&lt;br style=&quot;font-size: 12px;&quot;&gt;&lt;/td&gt;&lt;td style=&quot;font-size: 12px;&quot;&gt;&lt;br style=&quot;font-size: 12px;&quot;&gt;&lt;/td&gt;&lt;/tr&gt;&lt;tr style=&quot;font-size: 12px;&quot;&gt;&lt;td style=&quot;font-size: 12px;&quot;&gt;&lt;br style=&quot;font-size: 12px;&quot;&gt;&lt;/td&gt;&lt;td style=&quot;font-size: 12px;&quot;&gt;&lt;br style=&quot;font-size: 12px;&quot;&gt;&lt;/td&gt;&lt;/tr&gt;&lt;tr style=&quot;font-size: 12px;&quot;&gt;&lt;td style=&quot;font-size: 12px;&quot;&gt;&lt;br style=&quot;font-size: 12px;&quot;&gt;&lt;/td&gt;&lt;td style=&quot;font-size: 12px;&quot;&gt;&lt;br style=&quot;font-size: 12px;&quot;&gt;&lt;/td&gt;&lt;/tr&gt;&lt;tr style=&quot;font-size: 12px;&quot;&gt;&lt;td style=&quot;font-size: 12px;&quot;&gt;&lt;br style=&quot;font-size: 12px;&quot;&gt;&lt;/td&gt;&lt;td style=&quot;font-size: 12px;&quot;&gt;&lt;br style=&quot;font-size: 12px;&quot;&gt;&lt;/td&gt;&lt;/tr&gt;&lt;tr style=&quot;font-size: 12px;&quot;&gt;&lt;td style=&quot;font-size: 12px;&quot;&gt;&lt;br style=&quot;font-size: 12px;&quot;&gt;&lt;/td&gt;&lt;td style=&quot;font-size: 12px;&quot;&gt;&lt;br style=&quot;font-size: 12px;&quot;&gt;&lt;/td&gt;&lt;/tr&gt;&lt;tr style=&quot;font-size: 12px;&quot;&gt;&lt;td style=&quot;font-size: 12px;&quot;&gt;&lt;br style=&quot;font-size: 12px;&quot;&gt;&lt;/td&gt;&lt;td style=&quot;font-size: 12px;&quot;&gt;&lt;br style=&quot;font-size: 12px;&quot;&gt;&lt;/td&gt;&lt;/tr&gt;&lt;tr style=&quot;font-size: 12px;&quot;&gt;&lt;td style=&quot;font-size: 12px;&quot;&gt;&lt;br style=&quot;font-size: 12px;&quot;&gt;&lt;/td&gt;&lt;td style=&quot;font-size: 12px;&quot;&gt;&lt;br style=&quot;font-size: 12px;&quot;&gt;&lt;/td&gt;&lt;/tr&gt;&lt;tr style=&quot;font-size: 12px;&quot;&gt;&lt;td style=&quot;font-size: 12px;&quot;&gt;&lt;br style=&quot;font-size: 12px;&quot;&gt;&lt;/td&gt;&lt;td style=&quot;font-size: 12px;&quot;&gt;&lt;br style=&quot;font-size: 12px;&quot;&gt;&lt;/td&gt;&lt;/tr&gt;&lt;tr style=&quot;font-size: 12px;&quot;&gt;&lt;td style=&quot;font-size: 12px;&quot;&gt;&lt;br style=&quot;font-size: 12px;&quot;&gt;&lt;/td&gt;&lt;td style=&quot;font-size: 12px;&quot;&gt;&lt;br style=&quot;font-size: 12px;&quot;&gt;&lt;/td&gt;&lt;/tr&gt;&lt;tr style=&quot;font-size: 12px;&quot;&gt;&lt;td style=&quot;font-size: 12px;&quot;&gt;&lt;br style=&quot;font-size: 12px;&quot;&gt;&lt;/td&gt;&lt;td style=&quot;font-size: 12px;&quot;&gt;&lt;br style=&quot;font-size: 12px;&quot;&gt;&lt;/td&gt;&lt;/tr&gt;&lt;tr style=&quot;font-size: 12px;&quot;&gt;&lt;td style=&quot;font-size: 12px;&quot;&gt;&lt;br style=&quot;font-size: 12px;&quot;&gt;&lt;/td&gt;&lt;td style=&quot;font-size: 12px;&quot;&gt;&lt;br style=&quot;font-size: 12px;&quot;&gt;&lt;/td&gt;&lt;/tr&gt;&lt;tr style=&quot;font-size: 12px;&quot;&gt;&lt;td style=&quot;font-size: 12px;&quot;&gt;&lt;br style=&quot;font-size: 12px;&quot;&gt;&lt;/td&gt;&lt;td style=&quot;font-size: 12px;&quot;&gt;&lt;br style=&quot;font-size: 12px;&quot;&gt;&lt;/td&gt;&lt;/tr&gt;&lt;/tbody&gt;&lt;/table&gt;" style="verticalAlign=top;align=left;overflow=fill;html=1;rounded=0;shadow=0;comic=0;labelBackgroundColor=none;strokeWidth=1;fontFamily=Verdana;fontSize=12;fillColor=#ffff88;strokeColor=#36393d;" parent="1" vertex="1">
          <mxGeometry x="-2290" y="1540" width="210" height="80" as="geometry" />
        </mxCell>
        <mxCell id="7crgOBvIinUt4j5GadzT-219" value="1" style="text;html=1;strokeColor=none;fillColor=none;align=center;verticalAlign=middle;whiteSpace=wrap;rounded=0;fontColor=#000000;" parent="1" vertex="1">
          <mxGeometry x="-2130" y="2035" width="30" height="30" as="geometry" />
        </mxCell>
        <mxCell id="7crgOBvIinUt4j5GadzT-221" value="1" style="text;html=1;strokeColor=none;fillColor=none;align=center;verticalAlign=middle;whiteSpace=wrap;rounded=0;fontColor=#000000;" parent="1" vertex="1">
          <mxGeometry x="-2050" y="2095" width="30" height="30" as="geometry" />
        </mxCell>
        <mxCell id="7crgOBvIinUt4j5GadzT-222" value="n" style="text;html=1;strokeColor=none;fillColor=none;align=center;verticalAlign=middle;whiteSpace=wrap;rounded=0;fontColor=#000000;" parent="1" vertex="1">
          <mxGeometry x="-1940" y="2100" width="30" height="30" as="geometry" />
        </mxCell>
        <mxCell id="7crgOBvIinUt4j5GadzT-223" value="n" style="text;html=1;strokeColor=none;fillColor=none;align=center;verticalAlign=middle;whiteSpace=wrap;rounded=0;fontColor=#000000;" parent="1" vertex="1">
          <mxGeometry x="-1830" y="2100" width="30" height="30" as="geometry" />
        </mxCell>
        <mxCell id="7crgOBvIinUt4j5GadzT-224" value="1" style="text;html=1;strokeColor=none;fillColor=none;align=center;verticalAlign=middle;whiteSpace=wrap;rounded=0;fontColor=#000000;" parent="1" vertex="1">
          <mxGeometry x="-1735" y="1990" width="30" height="30" as="geometry" />
        </mxCell>
        <mxCell id="7crgOBvIinUt4j5GadzT-225" value="1" style="text;html=1;strokeColor=none;fillColor=none;align=center;verticalAlign=middle;whiteSpace=wrap;rounded=0;fontColor=#000000;" parent="1" vertex="1">
          <mxGeometry x="-1620" y="1990" width="30" height="30" as="geometry" />
        </mxCell>
        <mxCell id="7crgOBvIinUt4j5GadzT-226" value="n" style="text;html=1;strokeColor=none;fillColor=none;align=center;verticalAlign=middle;whiteSpace=wrap;rounded=0;fontColor=#000000;" parent="1" vertex="1">
          <mxGeometry x="-1630" y="2100" width="30" height="30" as="geometry" />
        </mxCell>
        <mxCell id="7crgOBvIinUt4j5GadzT-227" value="n" style="text;html=1;strokeColor=none;fillColor=none;align=center;verticalAlign=middle;whiteSpace=wrap;rounded=0;fontColor=#000000;" parent="1" vertex="1">
          <mxGeometry x="-1710" y="2105" width="30" height="30" as="geometry" />
        </mxCell>
        <mxCell id="7crgOBvIinUt4j5GadzT-228" value="1" style="text;html=1;strokeColor=none;fillColor=none;align=center;verticalAlign=middle;whiteSpace=wrap;rounded=0;fontColor=#000000;" parent="1" vertex="1">
          <mxGeometry x="-1860" y="2065" width="30" height="30" as="geometry" />
        </mxCell>
        <mxCell id="7crgOBvIinUt4j5GadzT-229" value="1" style="text;html=1;strokeColor=none;fillColor=none;align=center;verticalAlign=middle;whiteSpace=wrap;rounded=0;fontColor=#000000;" parent="1" vertex="1">
          <mxGeometry x="-1860" y="2010" width="30" height="30" as="geometry" />
        </mxCell>
        <mxCell id="7crgOBvIinUt4j5GadzT-230" value="n" style="text;html=1;strokeColor=none;fillColor=none;align=center;verticalAlign=middle;whiteSpace=wrap;rounded=0;fontColor=#000000;" parent="1" vertex="1">
          <mxGeometry x="-1510" y="2100" width="30" height="30" as="geometry" />
        </mxCell>
        <mxCell id="7crgOBvIinUt4j5GadzT-231" value="n" style="text;html=1;strokeColor=none;fillColor=none;align=center;verticalAlign=middle;whiteSpace=wrap;rounded=0;fontColor=#000000;" parent="1" vertex="1">
          <mxGeometry x="-1550" y="1960" width="30" height="30" as="geometry" />
        </mxCell>
        <mxCell id="7crgOBvIinUt4j5GadzT-232" value="1" style="text;html=1;strokeColor=none;fillColor=none;align=center;verticalAlign=middle;whiteSpace=wrap;rounded=0;fontColor=#000000;" parent="1" vertex="1">
          <mxGeometry x="-1400" y="2035" width="30" height="30" as="geometry" />
        </mxCell>
        <mxCell id="7crgOBvIinUt4j5GadzT-233" value="n" style="text;html=1;strokeColor=none;fillColor=none;align=center;verticalAlign=middle;whiteSpace=wrap;rounded=0;fontColor=#000000;" parent="1" vertex="1">
          <mxGeometry x="-1530" y="1920" width="30" height="30" as="geometry" />
        </mxCell>
        <mxCell id="7crgOBvIinUt4j5GadzT-234" value="1" style="text;html=1;strokeColor=none;fillColor=none;align=center;verticalAlign=middle;whiteSpace=wrap;rounded=0;fontColor=#000000;" parent="1" vertex="1">
          <mxGeometry x="-1570" y="1900" width="30" height="30" as="geometry" />
        </mxCell>
        <mxCell id="7crgOBvIinUt4j5GadzT-235" value="1" style="text;html=1;strokeColor=none;fillColor=none;align=center;verticalAlign=middle;whiteSpace=wrap;rounded=0;fontColor=#000000;" parent="1" vertex="1">
          <mxGeometry x="-1570" y="1830" width="30" height="30" as="geometry" />
        </mxCell>
        <mxCell id="7crgOBvIinUt4j5GadzT-236" value="n" style="text;html=1;strokeColor=none;fillColor=none;align=center;verticalAlign=middle;whiteSpace=wrap;rounded=0;fontColor=#000000;" parent="1" vertex="1">
          <mxGeometry x="-1490" y="1840" width="30" height="30" as="geometry" />
        </mxCell>
        <mxCell id="7crgOBvIinUt4j5GadzT-237" value="1" style="text;html=1;strokeColor=none;fillColor=none;align=center;verticalAlign=middle;whiteSpace=wrap;rounded=0;fontColor=#000000;" parent="1" vertex="1">
          <mxGeometry x="-1510" y="1687.5" width="30" height="30" as="geometry" />
        </mxCell>
        <mxCell id="7crgOBvIinUt4j5GadzT-238" value="1" style="text;html=1;strokeColor=none;fillColor=none;align=center;verticalAlign=middle;whiteSpace=wrap;rounded=0;fontColor=#000000;" parent="1" vertex="1">
          <mxGeometry x="-1990" y="1855" width="30" height="30" as="geometry" />
        </mxCell>
        <mxCell id="7crgOBvIinUt4j5GadzT-239" value="1" style="text;html=1;strokeColor=none;fillColor=none;align=center;verticalAlign=middle;whiteSpace=wrap;rounded=0;fontColor=#000000;" parent="1" vertex="1">
          <mxGeometry x="-1940" y="1840" width="30" height="30" as="geometry" />
        </mxCell>
        <mxCell id="7crgOBvIinUt4j5GadzT-240" value="1" style="text;html=1;strokeColor=none;fillColor=none;align=center;verticalAlign=middle;whiteSpace=wrap;rounded=0;fontColor=#000000;" parent="1" vertex="1">
          <mxGeometry x="-1960" y="1740" width="30" height="30" as="geometry" />
        </mxCell>
        <mxCell id="7crgOBvIinUt4j5GadzT-241" value="n" style="text;html=1;strokeColor=none;fillColor=none;align=center;verticalAlign=middle;whiteSpace=wrap;rounded=0;fontColor=#000000;" parent="1" vertex="1">
          <mxGeometry x="-1940" y="1712.5" width="30" height="30" as="geometry" />
        </mxCell>
        <mxCell id="7crgOBvIinUt4j5GadzT-242" style="edgeStyle=orthogonalEdgeStyle;rounded=0;orthogonalLoop=1;jettySize=auto;html=1;exitX=0;exitY=0.25;exitDx=0;exitDy=0;entryX=0.997;entryY=0.343;entryDx=0;entryDy=0;entryPerimeter=0;fontColor=#000000;" parent="1" source="7crgOBvIinUt4j5GadzT-203" target="7crgOBvIinUt4j5GadzT-186" edge="1">
          <mxGeometry relative="1" as="geometry" />
        </mxCell>
        <mxCell id="7crgOBvIinUt4j5GadzT-243" value="n" style="text;html=1;strokeColor=none;fillColor=none;align=center;verticalAlign=middle;whiteSpace=wrap;rounded=0;fontColor=#000000;" parent="1" vertex="1">
          <mxGeometry x="-1850" y="1657.5" width="30" height="30" as="geometry" />
        </mxCell>
        <mxCell id="7crgOBvIinUt4j5GadzT-244" value="1" style="text;html=1;strokeColor=none;fillColor=none;align=center;verticalAlign=middle;whiteSpace=wrap;rounded=0;fontColor=#000000;" parent="1" vertex="1">
          <mxGeometry x="-1815" y="1800" width="30" height="30" as="geometry" />
        </mxCell>
        <mxCell id="7crgOBvIinUt4j5GadzT-245" value="1" style="text;html=1;strokeColor=none;fillColor=none;align=center;verticalAlign=middle;whiteSpace=wrap;rounded=0;fontColor=#000000;" parent="1" vertex="1">
          <mxGeometry x="-1670" y="1710" width="30" height="30" as="geometry" />
        </mxCell>
        <mxCell id="7crgOBvIinUt4j5GadzT-246" value="1" style="text;html=1;strokeColor=none;fillColor=none;align=center;verticalAlign=middle;whiteSpace=wrap;rounded=0;fontColor=#000000;" parent="1" vertex="1">
          <mxGeometry x="-1760" y="1712.5" width="30" height="30" as="geometry" />
        </mxCell>
        <mxCell id="7crgOBvIinUt4j5GadzT-247" value="1" style="text;html=1;strokeColor=none;fillColor=none;align=center;verticalAlign=middle;whiteSpace=wrap;rounded=0;fontColor=#000000;" parent="1" vertex="1">
          <mxGeometry x="-1830" y="1345" width="30" height="30" as="geometry" />
        </mxCell>
        <mxCell id="7crgOBvIinUt4j5GadzT-248" value="n" style="text;html=1;strokeColor=none;fillColor=none;align=center;verticalAlign=middle;whiteSpace=wrap;rounded=0;fontColor=#000000;" parent="1" vertex="1">
          <mxGeometry x="-1810" y="1590" width="30" height="30" as="geometry" />
        </mxCell>
        <mxCell id="7crgOBvIinUt4j5GadzT-249" value="n" style="text;html=1;strokeColor=none;fillColor=none;align=center;verticalAlign=middle;whiteSpace=wrap;rounded=0;fontColor=#000000;" parent="1" vertex="1">
          <mxGeometry x="-1750" y="1680" width="30" height="30" as="geometry" />
        </mxCell>
        <mxCell id="7crgOBvIinUt4j5GadzT-250" value="1" style="text;html=1;strokeColor=none;fillColor=none;align=center;verticalAlign=middle;whiteSpace=wrap;rounded=0;fontColor=#000000;" parent="1" vertex="1">
          <mxGeometry x="-2050" y="1860" width="30" height="30" as="geometry" />
        </mxCell>
        <mxCell id="7crgOBvIinUt4j5GadzT-251" value="n" style="text;html=1;strokeColor=none;fillColor=none;align=center;verticalAlign=middle;whiteSpace=wrap;rounded=0;fontColor=#000000;" parent="1" vertex="1">
          <mxGeometry x="-2090" y="1590" width="30" height="30" as="geometry" />
        </mxCell>
        <mxCell id="7crgOBvIinUt4j5GadzT-252" value="1" style="text;html=1;strokeColor=none;fillColor=none;align=center;verticalAlign=middle;whiteSpace=wrap;rounded=0;fontColor=#000000;" parent="1" vertex="1">
          <mxGeometry x="-2070" y="1380" width="30" height="30" as="geometry" />
        </mxCell>
        <mxCell id="7crgOBvIinUt4j5GadzT-253" value="n" style="text;html=1;strokeColor=none;fillColor=none;align=center;verticalAlign=middle;whiteSpace=wrap;rounded=0;fontColor=#000000;" parent="1" vertex="1">
          <mxGeometry x="-2090" y="1520" width="30" height="30" as="geometry" />
        </mxCell>
        <mxCell id="7crgOBvIinUt4j5GadzT-254" value="1" style="text;html=1;strokeColor=none;fillColor=none;align=center;verticalAlign=middle;whiteSpace=wrap;rounded=0;fontColor=#000000;" parent="1" vertex="1">
          <mxGeometry x="-2300" y="1700" width="30" height="30" as="geometry" />
        </mxCell>
        <mxCell id="7crgOBvIinUt4j5GadzT-255" value="1" style="text;html=1;strokeColor=none;fillColor=none;align=center;verticalAlign=middle;whiteSpace=wrap;rounded=0;fontColor=#000000;" parent="1" vertex="1">
          <mxGeometry x="-2085" y="1852.5" width="30" height="30" as="geometry" />
        </mxCell>
        <mxCell id="7crgOBvIinUt4j5GadzT-256" value="n" style="text;html=1;strokeColor=none;fillColor=none;align=center;verticalAlign=middle;whiteSpace=wrap;rounded=0;fontColor=#000000;" parent="1" vertex="1">
          <mxGeometry x="-2300" y="1640" width="30" height="30" as="geometry" />
        </mxCell>
        <mxCell id="7crgOBvIinUt4j5GadzT-257" value="n" style="text;html=1;strokeColor=none;fillColor=none;align=center;verticalAlign=middle;whiteSpace=wrap;rounded=0;fontColor=#000000;" parent="1" vertex="1">
          <mxGeometry x="-2110" y="1890" width="30" height="30" as="geometry" />
        </mxCell>
        <mxCell id="7crgOBvIinUt4j5GadzT-258" value="&lt;div style=&quot;box-sizing: border-box; width: 100%; background: rgb(228, 228, 228); padding: 2px; font-size: 12px;&quot;&gt;noficications&lt;/div&gt;&lt;table style=&quot;width: 100%; font-size: 12px;&quot; cellpadding=&quot;2&quot; cellspacing=&quot;0&quot;&gt;&lt;tbody style=&quot;font-size: 12px;&quot;&gt;&lt;tr style=&quot;font-size: 12px;&quot;&gt;&lt;td style=&quot;font-size: 12px;&quot;&gt;PK&lt;/td&gt;&lt;td style=&quot;font-size: 12px;&quot;&gt;id INT&lt;/td&gt;&lt;/tr&gt;&lt;tr style=&quot;font-size: 12px;&quot;&gt;&lt;td style=&quot;font-size: 12px;&quot;&gt;&lt;br style=&quot;font-size: 12px;&quot;&gt;&lt;/td&gt;&lt;td style=&quot;font-size: 12px;&quot;&gt;type VARCHAR(255)&lt;/td&gt;&lt;/tr&gt;&lt;tr style=&quot;font-size: 12px;&quot;&gt;&lt;td style=&quot;font-size: 12px;&quot;&gt;FK&lt;/td&gt;&lt;td style=&quot;font-size: 12px;&quot;&gt;sender_id INT&lt;/td&gt;&lt;/tr&gt;&lt;tr style=&quot;font-size: 12px;&quot;&gt;&lt;td style=&quot;font-size: 12px;&quot;&gt;FK&lt;/td&gt;&lt;td style=&quot;font-size: 12px;&quot;&gt;received_id INT&lt;/td&gt;&lt;/tr&gt;&lt;tr style=&quot;font-size: 12px;&quot;&gt;&lt;td style=&quot;font-size: 12px;&quot;&gt;&lt;br style=&quot;font-size: 12px;&quot;&gt;&lt;/td&gt;&lt;td style=&quot;font-size: 12px;&quot;&gt;content VARCHAR(255)&lt;/td&gt;&lt;/tr&gt;&lt;tr style=&quot;font-size: 12px;&quot;&gt;&lt;td style=&quot;font-size: 12px;&quot;&gt;&lt;br style=&quot;font-size: 12px;&quot;&gt;&lt;/td&gt;&lt;td style=&quot;font-size: 12px;&quot;&gt;&lt;br style=&quot;font-size: 12px;&quot;&gt;&lt;/td&gt;&lt;/tr&gt;&lt;tr style=&quot;font-size: 12px;&quot;&gt;&lt;td style=&quot;font-size: 12px;&quot;&gt;&lt;br style=&quot;font-size: 12px;&quot;&gt;&lt;/td&gt;&lt;td style=&quot;font-size: 12px;&quot;&gt;&lt;br style=&quot;font-size: 12px;&quot;&gt;&lt;/td&gt;&lt;/tr&gt;&lt;tr style=&quot;font-size: 12px;&quot;&gt;&lt;td style=&quot;font-size: 12px;&quot;&gt;&lt;br style=&quot;font-size: 12px;&quot;&gt;&lt;/td&gt;&lt;td style=&quot;font-size: 12px;&quot;&gt;&lt;br style=&quot;font-size: 12px;&quot;&gt;&lt;/td&gt;&lt;/tr&gt;&lt;tr style=&quot;font-size: 12px;&quot;&gt;&lt;td style=&quot;font-size: 12px;&quot;&gt;&lt;br style=&quot;font-size: 12px;&quot;&gt;&lt;/td&gt;&lt;td style=&quot;font-size: 12px;&quot;&gt;&lt;br style=&quot;font-size: 12px;&quot;&gt;&lt;/td&gt;&lt;/tr&gt;&lt;tr style=&quot;font-size: 12px;&quot;&gt;&lt;td style=&quot;font-size: 12px;&quot;&gt;&lt;br style=&quot;font-size: 12px;&quot;&gt;&lt;/td&gt;&lt;td style=&quot;font-size: 12px;&quot;&gt;&lt;br style=&quot;font-size: 12px;&quot;&gt;&lt;/td&gt;&lt;/tr&gt;&lt;tr style=&quot;font-size: 12px;&quot;&gt;&lt;td style=&quot;font-size: 12px;&quot;&gt;&lt;br style=&quot;font-size: 12px;&quot;&gt;&lt;/td&gt;&lt;td style=&quot;font-size: 12px;&quot;&gt;&lt;br style=&quot;font-size: 12px;&quot;&gt;&lt;/td&gt;&lt;/tr&gt;&lt;tr style=&quot;font-size: 12px;&quot;&gt;&lt;td style=&quot;font-size: 12px;&quot;&gt;&lt;br style=&quot;font-size: 12px;&quot;&gt;&lt;/td&gt;&lt;td style=&quot;font-size: 12px;&quot;&gt;&lt;br style=&quot;font-size: 12px;&quot;&gt;&lt;/td&gt;&lt;/tr&gt;&lt;tr style=&quot;font-size: 12px;&quot;&gt;&lt;td style=&quot;font-size: 12px;&quot;&gt;&lt;br style=&quot;font-size: 12px;&quot;&gt;&lt;/td&gt;&lt;td style=&quot;font-size: 12px;&quot;&gt;&lt;br style=&quot;font-size: 12px;&quot;&gt;&lt;/td&gt;&lt;/tr&gt;&lt;tr style=&quot;font-size: 12px;&quot;&gt;&lt;td style=&quot;font-size: 12px;&quot;&gt;&lt;br style=&quot;font-size: 12px;&quot;&gt;&lt;/td&gt;&lt;td style=&quot;font-size: 12px;&quot;&gt;&lt;br style=&quot;font-size: 12px;&quot;&gt;&lt;/td&gt;&lt;/tr&gt;&lt;tr style=&quot;font-size: 12px;&quot;&gt;&lt;td style=&quot;font-size: 12px;&quot;&gt;&lt;br style=&quot;font-size: 12px;&quot;&gt;&lt;/td&gt;&lt;td style=&quot;font-size: 12px;&quot;&gt;&lt;br style=&quot;font-size: 12px;&quot;&gt;&lt;/td&gt;&lt;/tr&gt;&lt;tr style=&quot;font-size: 12px;&quot;&gt;&lt;td style=&quot;font-size: 12px;&quot;&gt;&lt;br style=&quot;font-size: 12px;&quot;&gt;&lt;/td&gt;&lt;td style=&quot;font-size: 12px;&quot;&gt;&lt;br style=&quot;font-size: 12px;&quot;&gt;&lt;/td&gt;&lt;/tr&gt;&lt;tr style=&quot;font-size: 12px;&quot;&gt;&lt;td style=&quot;font-size: 12px;&quot;&gt;&lt;br style=&quot;font-size: 12px;&quot;&gt;&lt;/td&gt;&lt;td style=&quot;font-size: 12px;&quot;&gt;&lt;br style=&quot;font-size: 12px;&quot;&gt;&lt;/td&gt;&lt;/tr&gt;&lt;/tbody&gt;&lt;/table&gt;" style="verticalAlign=top;align=left;overflow=fill;html=1;rounded=0;shadow=0;comic=0;labelBackgroundColor=none;strokeWidth=1;fontFamily=Verdana;fontSize=12;" parent="1" vertex="1">
          <mxGeometry x="-2510" y="1435" width="210" height="125" as="geometry" />
        </mxCell>
        <mxCell id="7crgOBvIinUt4j5GadzT-259" value="&lt;div style=&quot;font-family: Consolas, &amp;quot;Courier New&amp;quot;, monospace; font-size: 14px; line-height: 19px;&quot;&gt;&lt;div style=&quot;&quot;&gt;&lt;span style=&quot;background-color: rgb(255, 255, 255);&quot;&gt;router.use(apiKey)&lt;/span&gt;&lt;/div&gt;&lt;div style=&quot;&quot;&gt;&lt;span style=&quot;background-color: rgb(255, 255, 255);&quot;&gt;router.use(permission(&#39;0000&#39;))&lt;/span&gt;&lt;/div&gt;&lt;span style=&quot;background-color: rgb(255, 255, 255);&quot;&gt;&lt;br&gt;&lt;/span&gt;&lt;div style=&quot;&quot;&gt;&lt;span style=&quot;background-color: rgb(255, 255, 255);&quot;&gt;router.use(&#39;/v1/api/checkout&#39;, require(&#39;./checkout&#39;))&lt;/span&gt;&lt;/div&gt;&lt;div style=&quot;&quot;&gt;&lt;span style=&quot;background-color: rgb(255, 255, 255);&quot;&gt;router.use(&#39;/v1/api/discount&#39;, require(&#39;./discount&#39;))&lt;/span&gt;&lt;/div&gt;&lt;div style=&quot;&quot;&gt;&lt;span style=&quot;background-color: rgb(255, 255, 255);&quot;&gt;router.use(&#39;/v1/api/inventory&#39;, require(&#39;./inventory&#39;))&lt;/span&gt;&lt;/div&gt;&lt;div style=&quot;&quot;&gt;&lt;span style=&quot;background-color: rgb(255, 255, 255);&quot;&gt;router.use(&#39;/v1/api/discount&#39;, require(&#39;./cart&#39;))&lt;/span&gt;&lt;/div&gt;&lt;div style=&quot;&quot;&gt;&lt;span style=&quot;background-color: rgb(255, 255, 255);&quot;&gt;router.use(&#39;/v1/api/product&#39;, require(&#39;./product&#39;))&lt;/span&gt;&lt;/div&gt;&lt;div style=&quot;&quot;&gt;&lt;span style=&quot;background-color: rgb(255, 255, 255);&quot;&gt;router.use(&#39;/v1/api&#39;, require(&#39;./access&#39;))&lt;/span&gt;&lt;/div&gt;&lt;/div&gt;" style="rounded=0;whiteSpace=wrap;html=1;align=left;" parent="1" vertex="1">
          <mxGeometry x="-940" y="1640" width="460" height="260" as="geometry" />
        </mxCell>
        <mxCell id="7crgOBvIinUt4j5GadzT-260" value="&lt;div style=&quot;font-family: Consolas, &amp;quot;Courier New&amp;quot;, monospace; font-size: 14px; line-height: 19px;&quot;&gt;&lt;div style=&quot;&quot;&gt;&lt;div style=&quot;line-height: 19px;&quot;&gt;&lt;div style=&quot;&quot;&gt;&lt;span style=&quot;background-color: rgb(255, 255, 255);&quot;&gt;router.post(&#39;/shop/signup&#39;, asyncHandler(accessController.signUp))&lt;/span&gt;&lt;br&gt;&lt;/div&gt;&lt;div style=&quot;&quot;&gt;&lt;span style=&quot;background-color: rgb(255, 255, 255);&quot;&gt;router.post(&#39;/shop/login&#39;, asyncHandler(accessController.login))&lt;/span&gt;&lt;br&gt;&lt;/div&gt;&lt;div style=&quot;&quot;&gt;&lt;br&gt;&lt;/div&gt;&lt;div style=&quot;&quot;&gt;&lt;span style=&quot;background-color: rgb(255, 255, 255);&quot;&gt;router.use(authenticationv2)&lt;/span&gt;&lt;/div&gt;&lt;div style=&quot;&quot;&gt;&lt;span style=&quot;background-color: rgb(255, 255, 255);&quot;&gt;router.post(&#39;/shop/logout&#39;, asyncHandler(accessController.logout))&lt;/span&gt;&lt;/div&gt;&lt;div style=&quot;&quot;&gt;&lt;span style=&quot;background-color: rgb(255, 255, 255);&quot;&gt;router.post(&#39;/shop/handlerRefreshToken&#39;, asyncHandler(accessController.handlerRefreshToken))&lt;/span&gt;&lt;/div&gt;&lt;/div&gt;&lt;/div&gt;&lt;/div&gt;" style="rounded=0;whiteSpace=wrap;html=1;align=left;" parent="1" vertex="1">
          <mxGeometry x="-1040" y="1950" width="720" height="145" as="geometry" />
        </mxCell>
        <mxCell id="7crgOBvIinUt4j5GadzT-261" value="&lt;div style=&quot;font-family: Consolas, &amp;quot;Courier New&amp;quot;, monospace; font-size: 14px; line-height: 19px;&quot;&gt;&lt;div style=&quot;&quot;&gt;&lt;div style=&quot;line-height: 19px;&quot;&gt;&lt;div style=&quot;&quot;&gt;&lt;span style=&quot;background-color: rgb(255, 255, 255);&quot;&gt;router.use(authenticationv2)&lt;/span&gt;&lt;/div&gt;&lt;div style=&quot;&quot;&gt;&lt;span style=&quot;font-style: italic; background-color: rgb(255, 255, 255);&quot;&gt;// authentication&lt;/span&gt;&lt;/div&gt;&lt;div style=&quot;&quot;&gt;&lt;span style=&quot;background-color: rgb(255, 255, 255);&quot;&gt;router.post(&#39;&#39;, asyncHandler(cartController.addToCart))&lt;/span&gt;&lt;/div&gt;&lt;div style=&quot;&quot;&gt;&lt;span style=&quot;background-color: rgb(255, 255, 255);&quot;&gt;router.delete(&#39;&#39;, asyncHandler(cartController.delete))&lt;/span&gt;&lt;/div&gt;&lt;div style=&quot;&quot;&gt;&lt;span style=&quot;background-color: rgb(255, 255, 255);&quot;&gt;router.post(&#39;/update&#39;, asyncHandler(cartController.update))&lt;/span&gt;&lt;/div&gt;&lt;div style=&quot;&quot;&gt;&lt;span style=&quot;background-color: rgb(255, 255, 255);&quot;&gt;router.get(&#39;&#39;, asyncHandler(cartController.listToCart))&lt;/span&gt;&lt;/div&gt;&lt;/div&gt;&lt;/div&gt;&lt;/div&gt;" style="rounded=0;whiteSpace=wrap;html=1;align=left;" parent="1" vertex="1">
          <mxGeometry x="-960" y="2160" width="480" height="150" as="geometry" />
        </mxCell>
        <mxCell id="7crgOBvIinUt4j5GadzT-262" value="&lt;div style=&quot;font-family: Consolas, &amp;quot;Courier New&amp;quot;, monospace; font-size: 14px; line-height: 19px;&quot;&gt;&lt;div style=&quot;&quot;&gt;&lt;div style=&quot;line-height: 19px;&quot;&gt;&lt;div style=&quot;line-height: 19px;&quot;&gt;&lt;div style=&quot;&quot;&gt;&lt;span style=&quot;background-color: rgb(255, 255, 255);&quot;&gt;router.get(&#39;/search/:keySearch&#39;, asyncHandler(productController.getListSearchProduct))&lt;/span&gt;&lt;/div&gt;&lt;div style=&quot;&quot;&gt;&lt;span style=&quot;background-color: rgb(255, 255, 255);&quot;&gt;router.get(&#39;&#39;, asyncHandler(productController.findAllProducts))&lt;/span&gt;&lt;/div&gt;&lt;div style=&quot;&quot;&gt;&lt;span style=&quot;background-color: rgb(255, 255, 255);&quot;&gt;router.get(&#39;/:product_id&#39;, asyncHandler(productController.findProduct))&lt;/span&gt;&lt;/div&gt;&lt;div style=&quot;&quot;&gt;&lt;span style=&quot;font-style: italic; background-color: rgb(255, 255, 255);&quot;&gt;// authentication&lt;/span&gt;&lt;/div&gt;&lt;div style=&quot;&quot;&gt;&lt;span style=&quot;background-color: rgb(255, 255, 255);&quot;&gt;router.use(authenticationv2)&lt;/span&gt;&lt;/div&gt;&lt;div style=&quot;&quot;&gt;&lt;span style=&quot;font-style: italic; background-color: rgb(255, 255, 255);&quot;&gt;/////////////////////&lt;/span&gt;&lt;/div&gt;&lt;div style=&quot;&quot;&gt;&lt;span style=&quot;background-color: rgb(255, 255, 255);&quot;&gt;router.post(&#39;&#39;, asyncHandler(productController.createProduct))&lt;/span&gt;&lt;/div&gt;&lt;div style=&quot;&quot;&gt;&lt;span style=&quot;background-color: rgb(255, 255, 255);&quot;&gt;router.patch(&#39;/:product_id&#39;, asyncHandler(productController.updateProduct))&lt;/span&gt;&lt;/div&gt;&lt;div style=&quot;&quot;&gt;&lt;span style=&quot;background-color: rgb(255, 255, 255);&quot;&gt;router.post(&#39;/publish/:product_id&#39;, asyncHandler(productController.publishProductByShop))&lt;/span&gt;&lt;/div&gt;&lt;div style=&quot;&quot;&gt;&lt;span style=&quot;background-color: rgb(255, 255, 255);&quot;&gt;router.post(&#39;/unPublish/:product_id&#39;, asyncHandler(productController.unPublishProductByShop))&lt;/span&gt;&lt;/div&gt;&lt;span style=&quot;background-color: rgb(255, 255, 255);&quot;&gt;&lt;br&gt;&lt;/span&gt;&lt;div style=&quot;&quot;&gt;&lt;span style=&quot;font-style: italic; background-color: rgb(255, 255, 255);&quot;&gt;// QUERY&lt;/span&gt;&lt;/div&gt;&lt;div style=&quot;&quot;&gt;&lt;span style=&quot;background-color: rgb(255, 255, 255);&quot;&gt;router.get(&#39;/drafts/all&#39;, asyncHandler(productController.getAllDraftsForShop))&lt;/span&gt;&lt;/div&gt;&lt;div style=&quot;&quot;&gt;&lt;span style=&quot;background-color: rgb(255, 255, 255);&quot;&gt;router.get(&#39;/published/all&#39;, asyncHandler(productController.getAllPublishForShop))&lt;/span&gt;&lt;/div&gt;&lt;/div&gt;&lt;/div&gt;&lt;/div&gt;&lt;/div&gt;" style="rounded=0;whiteSpace=wrap;html=1;align=left;" parent="1" vertex="1">
          <mxGeometry x="-1050" y="2330" width="740" height="315" as="geometry" />
        </mxCell>
        <mxCell id="7crgOBvIinUt4j5GadzT-263" style="edgeStyle=orthogonalEdgeStyle;rounded=0;orthogonalLoop=1;jettySize=auto;html=1;exitX=1;exitY=0.5;exitDx=0;exitDy=0;entryX=0;entryY=0.5;entryDx=0;entryDy=0;" parent="1" source="7crgOBvIinUt4j5GadzT-264" target="7crgOBvIinUt4j5GadzT-214" edge="1">
          <mxGeometry relative="1" as="geometry">
            <Array as="points">
              <mxPoint x="-2150" y="1890" />
              <mxPoint x="-2150" y="1981" />
            </Array>
          </mxGeometry>
        </mxCell>
        <mxCell id="7crgOBvIinUt4j5GadzT-264" value="&lt;div style=&quot;box-sizing: border-box; width: 100%; background: rgb(228, 228, 228); padding: 2px; font-size: 12px;&quot;&gt;user_infos&lt;/div&gt;&lt;table style=&quot;width: 100%; font-size: 12px;&quot; cellpadding=&quot;2&quot; cellspacing=&quot;0&quot;&gt;&lt;tbody style=&quot;font-size: 12px;&quot;&gt;&lt;tr style=&quot;font-size: 12px;&quot;&gt;&lt;td style=&quot;font-size: 12px;&quot;&gt;FK, PK&lt;/td&gt;&lt;td style=&quot;font-size: 12px;&quot;&gt;user_id INT&lt;/td&gt;&lt;/tr&gt;&lt;tr style=&quot;font-size: 12px;&quot;&gt;&lt;td style=&quot;font-size: 12px;&quot;&gt;&lt;br style=&quot;font-size: 12px;&quot;&gt;&lt;/td&gt;&lt;td style=&quot;font-size: 12px;&quot;&gt;address VARCHAR(255)&lt;/td&gt;&lt;/tr&gt;&lt;tr style=&quot;font-size: 12px;&quot;&gt;&lt;td style=&quot;font-size: 12px;&quot;&gt;&lt;/td&gt;&lt;td style=&quot;font-size: 12px;&quot;&gt;image VARCHAR(255)&lt;br&gt;&lt;/td&gt;&lt;/tr&gt;&lt;tr style=&quot;font-size: 12px;&quot;&gt;&lt;td style=&quot;font-size: 12px;&quot;&gt;&lt;br style=&quot;font-size: 12px;&quot;&gt;&lt;/td&gt;&lt;td style=&quot;font-size: 12px;&quot;&gt;delivery_address VARCHAR(255)&lt;/td&gt;&lt;/tr&gt;&lt;tr style=&quot;font-size: 12px;&quot;&gt;&lt;td style=&quot;font-size: 12px;&quot;&gt;&lt;br style=&quot;font-size: 12px;&quot;&gt;&lt;/td&gt;&lt;td style=&quot;font-size: 12px;&quot;&gt;phone VARCHAR(255)&lt;/td&gt;&lt;/tr&gt;&lt;tr style=&quot;font-size: 12px;&quot;&gt;&lt;td style=&quot;font-size: 12px;&quot;&gt;&lt;br style=&quot;font-size: 12px;&quot;&gt;&lt;/td&gt;&lt;td style=&quot;font-size: 12px;&quot;&gt;&lt;br&gt;&lt;/td&gt;&lt;/tr&gt;&lt;tr style=&quot;font-size: 12px;&quot;&gt;&lt;td style=&quot;font-size: 12px;&quot;&gt;&lt;br style=&quot;font-size: 12px;&quot;&gt;&lt;/td&gt;&lt;td style=&quot;font-size: 12px;&quot;&gt;&lt;br style=&quot;font-size: 12px;&quot;&gt;&lt;/td&gt;&lt;/tr&gt;&lt;tr style=&quot;font-size: 12px;&quot;&gt;&lt;td style=&quot;font-size: 12px;&quot;&gt;&lt;br style=&quot;font-size: 12px;&quot;&gt;&lt;/td&gt;&lt;td style=&quot;font-size: 12px;&quot;&gt;&lt;br style=&quot;font-size: 12px;&quot;&gt;&lt;/td&gt;&lt;/tr&gt;&lt;tr style=&quot;font-size: 12px;&quot;&gt;&lt;td style=&quot;font-size: 12px;&quot;&gt;&lt;br style=&quot;font-size: 12px;&quot;&gt;&lt;/td&gt;&lt;td style=&quot;font-size: 12px;&quot;&gt;&lt;br&gt;&lt;/td&gt;&lt;/tr&gt;&lt;tr style=&quot;font-size: 12px;&quot;&gt;&lt;td style=&quot;font-size: 12px;&quot;&gt;&lt;br style=&quot;font-size: 12px;&quot;&gt;&lt;/td&gt;&lt;td style=&quot;font-size: 12px;&quot;&gt;&lt;br style=&quot;font-size: 12px;&quot;&gt;&lt;/td&gt;&lt;/tr&gt;&lt;tr style=&quot;font-size: 12px;&quot;&gt;&lt;td style=&quot;font-size: 12px;&quot;&gt;&lt;br style=&quot;font-size: 12px;&quot;&gt;&lt;/td&gt;&lt;td style=&quot;font-size: 12px;&quot;&gt;&lt;br style=&quot;font-size: 12px;&quot;&gt;&lt;/td&gt;&lt;/tr&gt;&lt;tr style=&quot;font-size: 12px;&quot;&gt;&lt;td style=&quot;font-size: 12px;&quot;&gt;&lt;br style=&quot;font-size: 12px;&quot;&gt;&lt;/td&gt;&lt;td style=&quot;font-size: 12px;&quot;&gt;&lt;br style=&quot;font-size: 12px;&quot;&gt;&lt;/td&gt;&lt;/tr&gt;&lt;tr style=&quot;font-size: 12px;&quot;&gt;&lt;td style=&quot;font-size: 12px;&quot;&gt;&lt;br style=&quot;font-size: 12px;&quot;&gt;&lt;/td&gt;&lt;td style=&quot;font-size: 12px;&quot;&gt;&lt;br style=&quot;font-size: 12px;&quot;&gt;&lt;/td&gt;&lt;/tr&gt;&lt;tr style=&quot;font-size: 12px;&quot;&gt;&lt;td style=&quot;font-size: 12px;&quot;&gt;&lt;br style=&quot;font-size: 12px;&quot;&gt;&lt;/td&gt;&lt;td style=&quot;font-size: 12px;&quot;&gt;&lt;br style=&quot;font-size: 12px;&quot;&gt;&lt;/td&gt;&lt;/tr&gt;&lt;tr style=&quot;font-size: 12px;&quot;&gt;&lt;td style=&quot;font-size: 12px;&quot;&gt;&lt;br style=&quot;font-size: 12px;&quot;&gt;&lt;/td&gt;&lt;td style=&quot;font-size: 12px;&quot;&gt;&lt;br style=&quot;font-size: 12px;&quot;&gt;&lt;/td&gt;&lt;/tr&gt;&lt;tr style=&quot;font-size: 12px;&quot;&gt;&lt;td style=&quot;font-size: 12px;&quot;&gt;&lt;br style=&quot;font-size: 12px;&quot;&gt;&lt;/td&gt;&lt;td style=&quot;font-size: 12px;&quot;&gt;&lt;br style=&quot;font-size: 12px;&quot;&gt;&lt;/td&gt;&lt;/tr&gt;&lt;tr style=&quot;font-size: 12px;&quot;&gt;&lt;td style=&quot;font-size: 12px;&quot;&gt;&lt;br style=&quot;font-size: 12px;&quot;&gt;&lt;/td&gt;&lt;td style=&quot;font-size: 12px;&quot;&gt;&lt;br style=&quot;font-size: 12px;&quot;&gt;&lt;/td&gt;&lt;/tr&gt;&lt;/tbody&gt;&lt;/table&gt;" style="verticalAlign=top;align=left;overflow=fill;html=1;rounded=0;shadow=0;comic=0;labelBackgroundColor=none;strokeWidth=1;fontFamily=Verdana;fontSize=12;fillColor=#f9f7ed;strokeColor=#36393d;" parent="1" vertex="1">
          <mxGeometry x="-2540" y="1760" width="250" height="160" as="geometry" />
        </mxCell>
        <mxCell id="7crgOBvIinUt4j5GadzT-265" value="1" style="text;html=1;strokeColor=none;fillColor=none;align=center;verticalAlign=middle;whiteSpace=wrap;rounded=0;fontColor=#000000;" parent="1" vertex="1">
          <mxGeometry x="-2180" y="1870" width="30" height="30" as="geometry" />
        </mxCell>
        <mxCell id="7crgOBvIinUt4j5GadzT-266" value="1" style="text;html=1;strokeColor=none;fillColor=none;align=center;verticalAlign=middle;whiteSpace=wrap;rounded=0;fontColor=#000000;" parent="1" vertex="1">
          <mxGeometry x="-2110" y="1980" width="30" height="30" as="geometry" />
        </mxCell>
        <mxCell id="7crgOBvIinUt4j5GadzT-267" value="&lt;div style=&quot;color: rgb(187, 187, 187); background-color: rgb(0, 0, 0); font-family: Consolas, &amp;quot;Courier New&amp;quot;, monospace; line-height: 19px; font-size: 15px;&quot;&gt;&lt;font style=&quot;font-size: 15px;&quot;&gt;&lt;br&gt;&lt;/font&gt;&lt;/div&gt;&lt;div style=&quot;color: rgb(187, 187, 187); background-color: rgb(0, 0, 0); font-family: Consolas, &amp;quot;Courier New&amp;quot;, monospace; line-height: 19px; font-size: 15px;&quot;&gt;&lt;div style=&quot;line-height: 19px;&quot;&gt;&lt;font style=&quot;font-size: 15px;&quot;&gt;BadRequestError&lt;/font&gt;&lt;/div&gt;&lt;div style=&quot;line-height: 19px;&quot;&gt;&lt;div style=&quot;line-height: 19px;&quot;&gt;&lt;font style=&quot;font-size: 15px;&quot;&gt;AuthFailureError&lt;/font&gt;&lt;/div&gt;&lt;div style=&quot;line-height: 19px;&quot;&gt;&lt;div style=&quot;line-height: 19px;&quot;&gt;&lt;font style=&quot;font-size: 15px;&quot;&gt;ForbiddenError&lt;/font&gt;&lt;/div&gt;&lt;div style=&quot;line-height: 19px;&quot;&gt;&lt;div style=&quot;line-height: 19px;&quot;&gt;&lt;font style=&quot;font-size: 15px;&quot;&gt;NotFoundError&lt;/font&gt;&lt;/div&gt;&lt;div style=&quot;line-height: 19px;&quot;&gt;&lt;font style=&quot;font-size: 15px;&quot;&gt;CREATED&lt;/font&gt;&lt;/div&gt;&lt;div style=&quot;line-height: 19px;&quot;&gt;&lt;font style=&quot;font-size: 15px;&quot;&gt;OK&lt;/font&gt;&lt;/div&gt;&lt;/div&gt;&lt;/div&gt;&lt;/div&gt;&lt;/div&gt;" style="whiteSpace=wrap;html=1;align=left;" parent="1" vertex="1">
          <mxGeometry x="-1750" y="2660" width="150" height="150" as="geometry" />
        </mxCell>
        <mxCell id="7crgOBvIinUt4j5GadzT-268" value="1" style="text;html=1;strokeColor=none;fillColor=none;align=center;verticalAlign=middle;whiteSpace=wrap;rounded=0;fontColor=#000000;" parent="1" vertex="1">
          <mxGeometry x="-2110" y="1940" width="30" height="30" as="geometry" />
        </mxCell>
        <mxCell id="7crgOBvIinUt4j5GadzT-269" value="1" style="text;html=1;strokeColor=none;fillColor=none;align=center;verticalAlign=middle;whiteSpace=wrap;rounded=0;fontColor=#000000;" parent="1" vertex="1">
          <mxGeometry x="-2320" y="2015" width="30" height="30" as="geometry" />
        </mxCell>
        <mxCell id="7crgOBvIinUt4j5GadzT-271" value="&lt;div style=&quot;box-sizing: border-box; width: 100%; background: rgb(228, 228, 228); padding: 2px; font-size: 12px;&quot;&gt;key_tokens&lt;/div&gt;&lt;table style=&quot;width: 100%; font-size: 12px;&quot; cellpadding=&quot;2&quot; cellspacing=&quot;0&quot;&gt;&lt;tbody style=&quot;font-size: 12px;&quot;&gt;&lt;tr style=&quot;font-size: 12px;&quot;&gt;&lt;td style=&quot;font-size: 12px;&quot;&gt;FK,Pk&lt;/td&gt;&lt;td style=&quot;font-size: 12px;&quot;&gt;user_id INT&lt;/td&gt;&lt;/tr&gt;&lt;tr style=&quot;font-size: 12px;&quot;&gt;&lt;td style=&quot;font-size: 12px;&quot;&gt;&lt;br&gt;&lt;/td&gt;&lt;td style=&quot;font-size: 12px;&quot;&gt;refresh_token VARCHAR(255)&lt;/td&gt;&lt;/tr&gt;&lt;tr style=&quot;font-size: 12px;&quot;&gt;&lt;td style=&quot;font-size: 12px;&quot;&gt;&lt;/td&gt;&lt;td style=&quot;font-size: 12px;&quot;&gt;public_key VARCHAR(255)&lt;/td&gt;&lt;/tr&gt;&lt;tr style=&quot;font-size: 12px;&quot;&gt;&lt;td style=&quot;font-size: 12px;&quot;&gt;&lt;br style=&quot;font-size: 12px;&quot;&gt;&lt;/td&gt;&lt;td style=&quot;font-size: 12px;&quot;&gt;private_key VARCHAR(255)&lt;/td&gt;&lt;/tr&gt;&lt;tr style=&quot;font-size: 12px;&quot;&gt;&lt;td style=&quot;font-size: 12px;&quot;&gt;&lt;br style=&quot;font-size: 12px;&quot;&gt;&lt;/td&gt;&lt;td style=&quot;font-size: 12px;&quot;&gt;refresh_token_useds ARRAY(VARCHAR(255))&lt;/td&gt;&lt;/tr&gt;&lt;tr style=&quot;font-size: 12px;&quot;&gt;&lt;td style=&quot;font-size: 12px;&quot;&gt;&lt;br style=&quot;font-size: 12px;&quot;&gt;&lt;/td&gt;&lt;td style=&quot;font-size: 12px;&quot;&gt;&lt;br style=&quot;font-size: 12px;&quot;&gt;&lt;/td&gt;&lt;/tr&gt;&lt;tr style=&quot;font-size: 12px;&quot;&gt;&lt;td style=&quot;font-size: 12px;&quot;&gt;&lt;br style=&quot;font-size: 12px;&quot;&gt;&lt;/td&gt;&lt;td style=&quot;font-size: 12px;&quot;&gt;&lt;br style=&quot;font-size: 12px;&quot;&gt;&lt;/td&gt;&lt;/tr&gt;&lt;tr style=&quot;font-size: 12px;&quot;&gt;&lt;td style=&quot;font-size: 12px;&quot;&gt;&lt;br style=&quot;font-size: 12px;&quot;&gt;&lt;/td&gt;&lt;td style=&quot;font-size: 12px;&quot;&gt;&lt;br style=&quot;font-size: 12px;&quot;&gt;&lt;/td&gt;&lt;/tr&gt;&lt;tr style=&quot;font-size: 12px;&quot;&gt;&lt;td style=&quot;font-size: 12px;&quot;&gt;&lt;br style=&quot;font-size: 12px;&quot;&gt;&lt;/td&gt;&lt;td style=&quot;font-size: 12px;&quot;&gt;&lt;br style=&quot;font-size: 12px;&quot;&gt;&lt;/td&gt;&lt;/tr&gt;&lt;tr style=&quot;font-size: 12px;&quot;&gt;&lt;td style=&quot;font-size: 12px;&quot;&gt;&lt;br style=&quot;font-size: 12px;&quot;&gt;&lt;/td&gt;&lt;td style=&quot;font-size: 12px;&quot;&gt;&lt;br style=&quot;font-size: 12px;&quot;&gt;&lt;/td&gt;&lt;/tr&gt;&lt;tr style=&quot;font-size: 12px;&quot;&gt;&lt;td style=&quot;font-size: 12px;&quot;&gt;&lt;br style=&quot;font-size: 12px;&quot;&gt;&lt;/td&gt;&lt;td style=&quot;font-size: 12px;&quot;&gt;&lt;br style=&quot;font-size: 12px;&quot;&gt;&lt;/td&gt;&lt;/tr&gt;&lt;tr style=&quot;font-size: 12px;&quot;&gt;&lt;td style=&quot;font-size: 12px;&quot;&gt;&lt;br style=&quot;font-size: 12px;&quot;&gt;&lt;/td&gt;&lt;td style=&quot;font-size: 12px;&quot;&gt;&lt;br style=&quot;font-size: 12px;&quot;&gt;&lt;/td&gt;&lt;/tr&gt;&lt;tr style=&quot;font-size: 12px;&quot;&gt;&lt;td style=&quot;font-size: 12px;&quot;&gt;&lt;br style=&quot;font-size: 12px;&quot;&gt;&lt;/td&gt;&lt;td style=&quot;font-size: 12px;&quot;&gt;&lt;br style=&quot;font-size: 12px;&quot;&gt;&lt;/td&gt;&lt;/tr&gt;&lt;tr style=&quot;font-size: 12px;&quot;&gt;&lt;td style=&quot;font-size: 12px;&quot;&gt;&lt;br style=&quot;font-size: 12px;&quot;&gt;&lt;/td&gt;&lt;td style=&quot;font-size: 12px;&quot;&gt;&lt;br style=&quot;font-size: 12px;&quot;&gt;&lt;/td&gt;&lt;/tr&gt;&lt;tr style=&quot;font-size: 12px;&quot;&gt;&lt;td style=&quot;font-size: 12px;&quot;&gt;&lt;br style=&quot;font-size: 12px;&quot;&gt;&lt;/td&gt;&lt;td style=&quot;font-size: 12px;&quot;&gt;&lt;br style=&quot;font-size: 12px;&quot;&gt;&lt;/td&gt;&lt;/tr&gt;&lt;tr style=&quot;font-size: 12px;&quot;&gt;&lt;td style=&quot;font-size: 12px;&quot;&gt;&lt;br style=&quot;font-size: 12px;&quot;&gt;&lt;/td&gt;&lt;td style=&quot;font-size: 12px;&quot;&gt;&lt;br style=&quot;font-size: 12px;&quot;&gt;&lt;/td&gt;&lt;/tr&gt;&lt;tr style=&quot;font-size: 12px;&quot;&gt;&lt;td style=&quot;font-size: 12px;&quot;&gt;&lt;br style=&quot;font-size: 12px;&quot;&gt;&lt;/td&gt;&lt;td style=&quot;font-size: 12px;&quot;&gt;&lt;br style=&quot;font-size: 12px;&quot;&gt;&lt;/td&gt;&lt;/tr&gt;&lt;/tbody&gt;&lt;/table&gt;" style="verticalAlign=top;align=left;overflow=fill;html=1;rounded=0;shadow=0;comic=0;labelBackgroundColor=none;strokeWidth=1;fontFamily=Verdana;fontSize=12;fillColor=#cce5ff;strokeColor=#36393d;" parent="1" vertex="1">
          <mxGeometry x="-2880" y="2125" width="320" height="122.5" as="geometry" />
        </mxCell>
        <mxCell id="7crgOBvIinUt4j5GadzT-272" value="1" style="text;html=1;strokeColor=none;fillColor=none;align=center;verticalAlign=middle;whiteSpace=wrap;rounded=0;fontColor=#000000;" parent="1" vertex="1">
          <mxGeometry x="-2100" y="2075" width="30" height="30" as="geometry" />
        </mxCell>
        <mxCell id="7crgOBvIinUt4j5GadzT-273" value="1" style="text;html=1;strokeColor=none;fillColor=none;align=center;verticalAlign=middle;whiteSpace=wrap;rounded=0;fontColor=#000000;" parent="1" vertex="1">
          <mxGeometry x="-2410" y="2140" width="30" height="30" as="geometry" />
        </mxCell>
        <mxCell id="W91j-H9noMrXrNVMlMJf-1" value="&lt;div style=&quot;box-sizing: border-box; width: 100%; background: rgb(228, 228, 228); padding: 2px; font-size: 12px;&quot;&gt;shop_infos&lt;/div&gt;&lt;table style=&quot;width: 100%; font-size: 12px;&quot; cellpadding=&quot;2&quot; cellspacing=&quot;0&quot;&gt;&lt;tbody style=&quot;font-size: 12px;&quot;&gt;&lt;tr style=&quot;font-size: 12px;&quot;&gt;&lt;td style=&quot;font-size: 12px;&quot;&gt;FK, PK&lt;/td&gt;&lt;td style=&quot;font-size: 12px;&quot;&gt;shop_id INT&lt;br&gt;user_id INT&lt;/td&gt;&lt;/tr&gt;&lt;tr style=&quot;font-size: 12px;&quot;&gt;&lt;td style=&quot;font-size: 12px;&quot;&gt;&lt;br style=&quot;font-size: 12px;&quot;&gt;&lt;/td&gt;&lt;td style=&quot;font-size: 12px;&quot;&gt;address VARCHAR(255)&lt;/td&gt;&lt;/tr&gt;&lt;tr style=&quot;font-size: 12px;&quot;&gt;&lt;td style=&quot;font-size: 12px;&quot;&gt;&lt;/td&gt;&lt;td style=&quot;font-size: 12px;&quot;&gt;image VARCHAR(255)&lt;br&gt;&lt;/td&gt;&lt;/tr&gt;&lt;tr style=&quot;font-size: 12px;&quot;&gt;&lt;td style=&quot;font-size: 12px;&quot;&gt;&lt;br style=&quot;font-size: 12px;&quot;&gt;&lt;/td&gt;&lt;td style=&quot;font-size: 12px;&quot;&gt;contact VARCHAR(255)&lt;/td&gt;&lt;/tr&gt;&lt;tr style=&quot;font-size: 12px;&quot;&gt;&lt;td style=&quot;font-size: 12px;&quot;&gt;&lt;br style=&quot;font-size: 12px;&quot;&gt;&lt;/td&gt;&lt;td style=&quot;font-size: 12px;&quot;&gt;categories VARCHAR(255)&lt;/td&gt;&lt;/tr&gt;&lt;tr style=&quot;font-size: 12px;&quot;&gt;&lt;td style=&quot;font-size: 12px;&quot;&gt;&lt;br style=&quot;font-size: 12px;&quot;&gt;&lt;/td&gt;&lt;td style=&quot;font-size: 12px;&quot;&gt;&lt;br&gt;&lt;/td&gt;&lt;/tr&gt;&lt;tr style=&quot;font-size: 12px;&quot;&gt;&lt;td style=&quot;font-size: 12px;&quot;&gt;&lt;br style=&quot;font-size: 12px;&quot;&gt;&lt;/td&gt;&lt;td style=&quot;font-size: 12px;&quot;&gt;&lt;br style=&quot;font-size: 12px;&quot;&gt;&lt;/td&gt;&lt;/tr&gt;&lt;tr style=&quot;font-size: 12px;&quot;&gt;&lt;td style=&quot;font-size: 12px;&quot;&gt;&lt;br style=&quot;font-size: 12px;&quot;&gt;&lt;/td&gt;&lt;td style=&quot;font-size: 12px;&quot;&gt;&lt;br style=&quot;font-size: 12px;&quot;&gt;&lt;/td&gt;&lt;/tr&gt;&lt;tr style=&quot;font-size: 12px;&quot;&gt;&lt;td style=&quot;font-size: 12px;&quot;&gt;&lt;br style=&quot;font-size: 12px;&quot;&gt;&lt;/td&gt;&lt;td style=&quot;font-size: 12px;&quot;&gt;&lt;br&gt;&lt;/td&gt;&lt;/tr&gt;&lt;tr style=&quot;font-size: 12px;&quot;&gt;&lt;td style=&quot;font-size: 12px;&quot;&gt;&lt;br style=&quot;font-size: 12px;&quot;&gt;&lt;/td&gt;&lt;td style=&quot;font-size: 12px;&quot;&gt;&lt;br style=&quot;font-size: 12px;&quot;&gt;&lt;/td&gt;&lt;/tr&gt;&lt;tr style=&quot;font-size: 12px;&quot;&gt;&lt;td style=&quot;font-size: 12px;&quot;&gt;&lt;br style=&quot;font-size: 12px;&quot;&gt;&lt;/td&gt;&lt;td style=&quot;font-size: 12px;&quot;&gt;&lt;br style=&quot;font-size: 12px;&quot;&gt;&lt;/td&gt;&lt;/tr&gt;&lt;tr style=&quot;font-size: 12px;&quot;&gt;&lt;td style=&quot;font-size: 12px;&quot;&gt;&lt;br style=&quot;font-size: 12px;&quot;&gt;&lt;/td&gt;&lt;td style=&quot;font-size: 12px;&quot;&gt;&lt;br style=&quot;font-size: 12px;&quot;&gt;&lt;/td&gt;&lt;/tr&gt;&lt;tr style=&quot;font-size: 12px;&quot;&gt;&lt;td style=&quot;font-size: 12px;&quot;&gt;&lt;br style=&quot;font-size: 12px;&quot;&gt;&lt;/td&gt;&lt;td style=&quot;font-size: 12px;&quot;&gt;&lt;br style=&quot;font-size: 12px;&quot;&gt;&lt;/td&gt;&lt;/tr&gt;&lt;tr style=&quot;font-size: 12px;&quot;&gt;&lt;td style=&quot;font-size: 12px;&quot;&gt;&lt;br style=&quot;font-size: 12px;&quot;&gt;&lt;/td&gt;&lt;td style=&quot;font-size: 12px;&quot;&gt;&lt;br style=&quot;font-size: 12px;&quot;&gt;&lt;/td&gt;&lt;/tr&gt;&lt;tr style=&quot;font-size: 12px;&quot;&gt;&lt;td style=&quot;font-size: 12px;&quot;&gt;&lt;br style=&quot;font-size: 12px;&quot;&gt;&lt;/td&gt;&lt;td style=&quot;font-size: 12px;&quot;&gt;&lt;br style=&quot;font-size: 12px;&quot;&gt;&lt;/td&gt;&lt;/tr&gt;&lt;tr style=&quot;font-size: 12px;&quot;&gt;&lt;td style=&quot;font-size: 12px;&quot;&gt;&lt;br style=&quot;font-size: 12px;&quot;&gt;&lt;/td&gt;&lt;td style=&quot;font-size: 12px;&quot;&gt;&lt;br style=&quot;font-size: 12px;&quot;&gt;&lt;/td&gt;&lt;/tr&gt;&lt;tr style=&quot;font-size: 12px;&quot;&gt;&lt;td style=&quot;font-size: 12px;&quot;&gt;&lt;br style=&quot;font-size: 12px;&quot;&gt;&lt;/td&gt;&lt;td style=&quot;font-size: 12px;&quot;&gt;&lt;br style=&quot;font-size: 12px;&quot;&gt;&lt;/td&gt;&lt;/tr&gt;&lt;/tbody&gt;&lt;/table&gt;" style="verticalAlign=top;align=left;overflow=fill;html=1;rounded=0;shadow=0;comic=0;labelBackgroundColor=none;strokeWidth=1;fontFamily=Verdana;fontSize=12;fillColor=#f9f7ed;strokeColor=#36393d;" parent="1" vertex="1">
          <mxGeometry x="-2530" y="1945" width="250" height="160" as="geometry" />
        </mxCell>
        <mxCell id="W91j-H9noMrXrNVMlMJf-2" value="&lt;div style=&quot;box-sizing: border-box; width: 100%; background: rgb(228, 228, 228); padding: 2px; font-size: 12px;&quot;&gt;delivery_person_infos&lt;/div&gt;&lt;table style=&quot;width: 100%; font-size: 12px;&quot; cellpadding=&quot;2&quot; cellspacing=&quot;0&quot;&gt;&lt;tbody style=&quot;font-size: 12px;&quot;&gt;&lt;tr style=&quot;font-size: 12px;&quot;&gt;&lt;td style=&quot;font-size: 12px;&quot;&gt;FK, PK&lt;/td&gt;&lt;td style=&quot;font-size: 12px;&quot;&gt;shop_id INT&lt;br&gt;user_id INT&lt;/td&gt;&lt;/tr&gt;&lt;tr style=&quot;font-size: 12px;&quot;&gt;&lt;td style=&quot;font-size: 12px;&quot;&gt;&lt;br style=&quot;font-size: 12px;&quot;&gt;&lt;/td&gt;&lt;td style=&quot;font-size: 12px;&quot;&gt;address VARCHAR(255)&lt;/td&gt;&lt;/tr&gt;&lt;tr style=&quot;font-size: 12px;&quot;&gt;&lt;td style=&quot;font-size: 12px;&quot;&gt;&lt;/td&gt;&lt;td style=&quot;font-size: 12px;&quot;&gt;image VARCHAR(255)&lt;br&gt;&lt;/td&gt;&lt;/tr&gt;&lt;tr style=&quot;font-size: 12px;&quot;&gt;&lt;td style=&quot;font-size: 12px;&quot;&gt;&lt;br style=&quot;font-size: 12px;&quot;&gt;&lt;/td&gt;&lt;td style=&quot;font-size: 12px;&quot;&gt;contact VARCHAR(255)&lt;/td&gt;&lt;/tr&gt;&lt;tr style=&quot;font-size: 12px;&quot;&gt;&lt;td style=&quot;font-size: 12px;&quot;&gt;&lt;br style=&quot;font-size: 12px;&quot;&gt;&lt;/td&gt;&lt;td style=&quot;font-size: 12px;&quot;&gt;categories VARCHAR(255)&lt;/td&gt;&lt;/tr&gt;&lt;tr style=&quot;font-size: 12px;&quot;&gt;&lt;td style=&quot;font-size: 12px;&quot;&gt;&lt;br style=&quot;font-size: 12px;&quot;&gt;&lt;/td&gt;&lt;td style=&quot;font-size: 12px;&quot;&gt;&lt;br&gt;&lt;/td&gt;&lt;/tr&gt;&lt;tr style=&quot;font-size: 12px;&quot;&gt;&lt;td style=&quot;font-size: 12px;&quot;&gt;&lt;br style=&quot;font-size: 12px;&quot;&gt;&lt;/td&gt;&lt;td style=&quot;font-size: 12px;&quot;&gt;&lt;br style=&quot;font-size: 12px;&quot;&gt;&lt;/td&gt;&lt;/tr&gt;&lt;tr style=&quot;font-size: 12px;&quot;&gt;&lt;td style=&quot;font-size: 12px;&quot;&gt;&lt;br style=&quot;font-size: 12px;&quot;&gt;&lt;/td&gt;&lt;td style=&quot;font-size: 12px;&quot;&gt;&lt;br style=&quot;font-size: 12px;&quot;&gt;&lt;/td&gt;&lt;/tr&gt;&lt;tr style=&quot;font-size: 12px;&quot;&gt;&lt;td style=&quot;font-size: 12px;&quot;&gt;&lt;br style=&quot;font-size: 12px;&quot;&gt;&lt;/td&gt;&lt;td style=&quot;font-size: 12px;&quot;&gt;&lt;br&gt;&lt;/td&gt;&lt;/tr&gt;&lt;tr style=&quot;font-size: 12px;&quot;&gt;&lt;td style=&quot;font-size: 12px;&quot;&gt;&lt;br style=&quot;font-size: 12px;&quot;&gt;&lt;/td&gt;&lt;td style=&quot;font-size: 12px;&quot;&gt;&lt;br style=&quot;font-size: 12px;&quot;&gt;&lt;/td&gt;&lt;/tr&gt;&lt;tr style=&quot;font-size: 12px;&quot;&gt;&lt;td style=&quot;font-size: 12px;&quot;&gt;&lt;br style=&quot;font-size: 12px;&quot;&gt;&lt;/td&gt;&lt;td style=&quot;font-size: 12px;&quot;&gt;&lt;br style=&quot;font-size: 12px;&quot;&gt;&lt;/td&gt;&lt;/tr&gt;&lt;tr style=&quot;font-size: 12px;&quot;&gt;&lt;td style=&quot;font-size: 12px;&quot;&gt;&lt;br style=&quot;font-size: 12px;&quot;&gt;&lt;/td&gt;&lt;td style=&quot;font-size: 12px;&quot;&gt;&lt;br style=&quot;font-size: 12px;&quot;&gt;&lt;/td&gt;&lt;/tr&gt;&lt;tr style=&quot;font-size: 12px;&quot;&gt;&lt;td style=&quot;font-size: 12px;&quot;&gt;&lt;br style=&quot;font-size: 12px;&quot;&gt;&lt;/td&gt;&lt;td style=&quot;font-size: 12px;&quot;&gt;&lt;br style=&quot;font-size: 12px;&quot;&gt;&lt;/td&gt;&lt;/tr&gt;&lt;tr style=&quot;font-size: 12px;&quot;&gt;&lt;td style=&quot;font-size: 12px;&quot;&gt;&lt;br style=&quot;font-size: 12px;&quot;&gt;&lt;/td&gt;&lt;td style=&quot;font-size: 12px;&quot;&gt;&lt;br style=&quot;font-size: 12px;&quot;&gt;&lt;/td&gt;&lt;/tr&gt;&lt;tr style=&quot;font-size: 12px;&quot;&gt;&lt;td style=&quot;font-size: 12px;&quot;&gt;&lt;br style=&quot;font-size: 12px;&quot;&gt;&lt;/td&gt;&lt;td style=&quot;font-size: 12px;&quot;&gt;&lt;br style=&quot;font-size: 12px;&quot;&gt;&lt;/td&gt;&lt;/tr&gt;&lt;tr style=&quot;font-size: 12px;&quot;&gt;&lt;td style=&quot;font-size: 12px;&quot;&gt;&lt;br style=&quot;font-size: 12px;&quot;&gt;&lt;/td&gt;&lt;td style=&quot;font-size: 12px;&quot;&gt;&lt;br style=&quot;font-size: 12px;&quot;&gt;&lt;/td&gt;&lt;/tr&gt;&lt;tr style=&quot;font-size: 12px;&quot;&gt;&lt;td style=&quot;font-size: 12px;&quot;&gt;&lt;br style=&quot;font-size: 12px;&quot;&gt;&lt;/td&gt;&lt;td style=&quot;font-size: 12px;&quot;&gt;&lt;br style=&quot;font-size: 12px;&quot;&gt;&lt;/td&gt;&lt;/tr&gt;&lt;/tbody&gt;&lt;/table&gt;" style="verticalAlign=top;align=left;overflow=fill;html=1;rounded=0;shadow=0;comic=0;labelBackgroundColor=none;strokeWidth=1;fontFamily=Verdana;fontSize=12;fillColor=#f9f7ed;strokeColor=#36393d;" parent="1" vertex="1">
          <mxGeometry x="-2840" y="1942.5" width="250" height="160" as="geometry" />
        </mxCell>
        <mxCell id="W91j-H9noMrXrNVMlMJf-3" value="&lt;div style=&quot;box-sizing: border-box; width: 100%; background: rgb(228, 228, 228); padding: 2px; font-size: 12px;&quot;&gt;supplier_infos&lt;/div&gt;&lt;table style=&quot;width: 100%; font-size: 12px;&quot; cellpadding=&quot;2&quot; cellspacing=&quot;0&quot;&gt;&lt;tbody style=&quot;font-size: 12px;&quot;&gt;&lt;tr style=&quot;font-size: 12px;&quot;&gt;&lt;td style=&quot;font-size: 12px;&quot;&gt;FK, PK&lt;/td&gt;&lt;td style=&quot;font-size: 12px;&quot;&gt;supplier_id INT&lt;br&gt;user_id INT&lt;/td&gt;&lt;/tr&gt;&lt;tr style=&quot;font-size: 12px;&quot;&gt;&lt;td style=&quot;font-size: 12px;&quot;&gt;&lt;br style=&quot;font-size: 12px;&quot;&gt;&lt;/td&gt;&lt;td style=&quot;font-size: 12px;&quot;&gt;address VARCHAR(255)&lt;/td&gt;&lt;/tr&gt;&lt;tr style=&quot;font-size: 12px;&quot;&gt;&lt;td style=&quot;font-size: 12px;&quot;&gt;&lt;/td&gt;&lt;td style=&quot;font-size: 12px;&quot;&gt;name VARCHAR&lt;/td&gt;&lt;/tr&gt;&lt;tr style=&quot;font-size: 12px;&quot;&gt;&lt;td style=&quot;font-size: 12px;&quot;&gt;&lt;br style=&quot;font-size: 12px;&quot;&gt;&lt;/td&gt;&lt;td style=&quot;font-size: 12px;&quot;&gt;contact VARCHAR(255)&lt;/td&gt;&lt;/tr&gt;&lt;tr style=&quot;font-size: 12px;&quot;&gt;&lt;td style=&quot;font-size: 12px;&quot;&gt;&lt;br style=&quot;font-size: 12px;&quot;&gt;&lt;/td&gt;&lt;td style=&quot;font-size: 12px;&quot;&gt;categories VARCHAR(255)&lt;/td&gt;&lt;/tr&gt;&lt;tr style=&quot;font-size: 12px;&quot;&gt;&lt;td style=&quot;font-size: 12px;&quot;&gt;&lt;br style=&quot;font-size: 12px;&quot;&gt;&lt;/td&gt;&lt;td style=&quot;font-size: 12px;&quot;&gt;&lt;br&gt;&lt;/td&gt;&lt;/tr&gt;&lt;tr style=&quot;font-size: 12px;&quot;&gt;&lt;td style=&quot;font-size: 12px;&quot;&gt;&lt;br style=&quot;font-size: 12px;&quot;&gt;&lt;/td&gt;&lt;td style=&quot;font-size: 12px;&quot;&gt;&lt;br style=&quot;font-size: 12px;&quot;&gt;&lt;/td&gt;&lt;/tr&gt;&lt;tr style=&quot;font-size: 12px;&quot;&gt;&lt;td style=&quot;font-size: 12px;&quot;&gt;&lt;br style=&quot;font-size: 12px;&quot;&gt;&lt;/td&gt;&lt;td style=&quot;font-size: 12px;&quot;&gt;&lt;br style=&quot;font-size: 12px;&quot;&gt;&lt;/td&gt;&lt;/tr&gt;&lt;tr style=&quot;font-size: 12px;&quot;&gt;&lt;td style=&quot;font-size: 12px;&quot;&gt;&lt;br style=&quot;font-size: 12px;&quot;&gt;&lt;/td&gt;&lt;td style=&quot;font-size: 12px;&quot;&gt;&lt;br&gt;&lt;/td&gt;&lt;/tr&gt;&lt;tr style=&quot;font-size: 12px;&quot;&gt;&lt;td style=&quot;font-size: 12px;&quot;&gt;&lt;br style=&quot;font-size: 12px;&quot;&gt;&lt;/td&gt;&lt;td style=&quot;font-size: 12px;&quot;&gt;&lt;br style=&quot;font-size: 12px;&quot;&gt;&lt;/td&gt;&lt;/tr&gt;&lt;tr style=&quot;font-size: 12px;&quot;&gt;&lt;td style=&quot;font-size: 12px;&quot;&gt;&lt;br style=&quot;font-size: 12px;&quot;&gt;&lt;/td&gt;&lt;td style=&quot;font-size: 12px;&quot;&gt;&lt;br style=&quot;font-size: 12px;&quot;&gt;&lt;/td&gt;&lt;/tr&gt;&lt;tr style=&quot;font-size: 12px;&quot;&gt;&lt;td style=&quot;font-size: 12px;&quot;&gt;&lt;br style=&quot;font-size: 12px;&quot;&gt;&lt;/td&gt;&lt;td style=&quot;font-size: 12px;&quot;&gt;&lt;br style=&quot;font-size: 12px;&quot;&gt;&lt;/td&gt;&lt;/tr&gt;&lt;tr style=&quot;font-size: 12px;&quot;&gt;&lt;td style=&quot;font-size: 12px;&quot;&gt;&lt;br style=&quot;font-size: 12px;&quot;&gt;&lt;/td&gt;&lt;td style=&quot;font-size: 12px;&quot;&gt;&lt;br style=&quot;font-size: 12px;&quot;&gt;&lt;/td&gt;&lt;/tr&gt;&lt;tr style=&quot;font-size: 12px;&quot;&gt;&lt;td style=&quot;font-size: 12px;&quot;&gt;&lt;br style=&quot;font-size: 12px;&quot;&gt;&lt;/td&gt;&lt;td style=&quot;font-size: 12px;&quot;&gt;&lt;br style=&quot;font-size: 12px;&quot;&gt;&lt;/td&gt;&lt;/tr&gt;&lt;tr style=&quot;font-size: 12px;&quot;&gt;&lt;td style=&quot;font-size: 12px;&quot;&gt;&lt;br style=&quot;font-size: 12px;&quot;&gt;&lt;/td&gt;&lt;td style=&quot;font-size: 12px;&quot;&gt;&lt;br style=&quot;font-size: 12px;&quot;&gt;&lt;/td&gt;&lt;/tr&gt;&lt;tr style=&quot;font-size: 12px;&quot;&gt;&lt;td style=&quot;font-size: 12px;&quot;&gt;&lt;br style=&quot;font-size: 12px;&quot;&gt;&lt;/td&gt;&lt;td style=&quot;font-size: 12px;&quot;&gt;&lt;br style=&quot;font-size: 12px;&quot;&gt;&lt;/td&gt;&lt;/tr&gt;&lt;tr style=&quot;font-size: 12px;&quot;&gt;&lt;td style=&quot;font-size: 12px;&quot;&gt;&lt;br style=&quot;font-size: 12px;&quot;&gt;&lt;/td&gt;&lt;td style=&quot;font-size: 12px;&quot;&gt;&lt;br style=&quot;font-size: 12px;&quot;&gt;&lt;/td&gt;&lt;/tr&gt;&lt;/tbody&gt;&lt;/table&gt;" style="verticalAlign=top;align=left;overflow=fill;html=1;rounded=0;shadow=0;comic=0;labelBackgroundColor=none;strokeWidth=1;fontFamily=Verdana;fontSize=12;fillColor=#f9f7ed;strokeColor=#36393d;" parent="1" vertex="1">
          <mxGeometry x="-2860" y="1735" width="250" height="160" as="geometry" />
        </mxCell>
      </root>
    </mxGraphModel>
  </diagram>
</mxfile>
